<svg width="137" height="164" viewBox="0 0 137 164" fill="none" xmlns="http://www.w3.org/2000/svg">
<path d="M64.8927 32.1641L18.0703 124.782L64.8927 99.5219V32.1641Z" fill="url(#paint0_linear_371_738)" stroke="#FFF7D2" stroke-miterlimit="10"/>
<path d="M56.5168 64.9102L36.1431 89.0282L18.0703 124.778L64.8927 99.5187L56.5168 64.9102Z" fill="url(#paint1_linear_371_738)" stroke="url(#paint2_linear_371_738)" stroke-miterlimit="10"/>
<path d="M18.0703 124.783L64.8927 99.5234V156.999L18.0703 124.783Z" fill="url(#paint3_linear_371_738)" stroke="#FFF7D2" stroke-miterlimit="10"/>
<path d="M64.8926 32.1641L111.712 124.782L64.8926 99.5219V32.1641Z" fill="url(#paint4_linear_371_738)" stroke="#FFF7D2" stroke-miterlimit="10"/>
<path d="M75.7719 83.8651L77.543 64.9102L89.1893 80.2276L111.712 125.129L64.8926 99.8691L69.4414 72.3615L75.7719 83.8651Z" fill="url(#paint5_linear_371_738)"/>
<path d="M111.712 124.783L64.8926 99.5234V156.999L111.712 124.783Z" fill="url(#paint6_linear_371_738)" stroke="#FFF7D2" stroke-miterlimit="10"/>
<g filter="url(#filter0_d_371_738)">
<path d="M110.277 89.2542C110.17 88.6678 110.136 88.6607 109.475 88.8037C108.588 88.9992 107.704 89.2232 106.804 89.3496C104.591 89.6618 102.37 89.9455 100.162 89.3067C100.146 89.3019 100.111 89.3448 100.077 89.371C100.854 90.5986 101.214 91.9335 101.057 93.3136C100.806 95.5114 100.034 97.4421 98.7051 99.0273C98.801 99.218 101.416 104.448 101.664 104.827C104.327 103.549 106.207 101.845 107.949 99.33C110.088 96.2408 110.937 92.8774 110.272 89.2518L110.277 89.2542Z" fill="url(#paint7_linear_371_738)"/>
<path d="M117.004 87.159C116.74 86.463 116.336 85.8432 115.726 85.3164C114.554 86.451 113.11 87.1209 111.656 87.7716C111.424 87.8765 111.299 87.9575 111.318 88.2507C111.414 89.731 111.627 91.2255 111.488 92.6939C111.041 97.4851 108.777 101.454 104.338 104.274C103.496 104.808 102.918 105.141 102.031 105.549C102.055 105.592 102.628 106.798 103.011 107.492C103.147 107.735 103.413 108.309 103.547 108.552C107.755 106.86 110.799 104.257 113.558 100.925C115.768 98.255 117.39 95.3588 117.625 91.9549C117.736 90.3174 117.593 88.7179 117.001 87.159H117.004Z" fill="url(#paint8_linear_371_738)"/>
<path d="M98.2668 93.9438C97.4518 92.9522 96.5756 92.0035 95.8805 91.2145C96.3253 91.7151 96.0216 91.8486 95.6328 92.8759C95.7899 93.1882 97.284 96.0963 97.9418 97.5098C98.043 97.7267 98.1496 97.9412 98.2588 98.1558C99.4173 96.666 100.184 95.0403 100.246 93.1453C100.315 90.9833 99.8141 89.1002 97.4358 87.9894C96.778 87.6819 96.3572 87.1265 96.3892 86.3852C96.3972 86.1849 96.3173 85.98 96.2773 85.7773C96.1495 86.2326 96.1468 86.6712 96.0563 87.0931C95.6781 88.8737 96.2747 90.3826 97.569 91.7246C98.0191 92.1918 98.4319 92.69 98.834 93.1906C99.3507 93.8318 99.3214 94.4992 98.9139 95.1714C98.6955 94.7471 98.5571 94.2942 98.2668 93.9414V93.9438Z" fill="url(#paint9_linear_371_738)"/>
</g>
<path d="M115.164 84.7931C114.535 85.1816 113.915 85.6393 113.222 85.9849C110.45 87.3698 107.555 88.4496 104.343 88.6927C102.364 88.8429 100.428 88.6951 98.5746 88.0134C98.1831 87.868 97.8022 87.6725 97.464 87.4437C97.3015 87.3341 97.1737 87.0957 97.163 86.9098C97.1178 86.1065 97.3841 85.9539 98.2124 86.2209C102.063 87.4628 105.856 87.2149 109.528 85.6988C110.959 85.1101 112.282 84.3116 113.627 83.5678C113.992 83.3676 114.139 83.3605 114.344 83.7109C114.554 84.0732 114.858 84.3926 115.164 84.7907V84.7931Z" fill="url(#paint10_linear_371_738)"/>
<g filter="url(#filter1_d_371_738)">
<path d="M109.236 72.8515C109.366 74.1077 109.609 75.3663 108.448 76.4342C106.716 78.0288 104.631 79.1539 102.421 80.1122C100.905 80.7677 99.3499 81.3302 97.6747 81.5757C96.8491 81.6973 96.8092 81.6782 96.724 80.9631C96.6787 80.5841 96.471 80.1003 96.6547 79.8524C96.8332 79.6116 97.4217 79.6259 97.8239 79.5091C102.08 78.2624 105.776 76.2459 108.711 73.1781C108.831 73.0541 108.954 72.9325 109.073 72.8086L109.239 72.8491L109.236 72.8515Z" fill="url(#paint11_linear_371_738)"/>
<path d="M90.4274 53.8687C90.7843 55.1606 91.3036 56.3763 92.4089 57.3202C91.1918 59.1103 91.5114 60.9696 92.084 62.8122C92.851 65.2698 94.3877 67.2768 96.7047 68.7928C98.4811 69.9561 100.305 71.0668 101.991 72.3254C103.025 73.0954 103.834 74.1036 104.745 75.0047C105.011 75.2669 105.001 75.5148 104.662 75.7126C103.778 76.2299 102.894 76.7471 101.994 77.2453C101.501 77.5171 101.203 77.3836 100.931 76.8973C99.9964 75.2264 98.7021 73.8152 96.9044 72.8284C96.417 72.5614 95.8578 72.4041 95.3384 72.1848C94.9842 72.037 94.63 71.8868 94.2971 71.7057C90.6591 69.7034 88.2036 66.9145 87.3966 63.1101C86.9412 60.9553 87.4899 58.8863 88.4753 56.9174C89.0053 55.8614 89.6631 54.8579 90.265 53.8281C90.3209 53.8424 90.3742 53.8591 90.4301 53.8734L90.4274 53.8687Z" fill="url(#paint12_linear_371_738)"/>
<path d="M96.3567 59.0128C96.0957 59.2106 95.9332 59.3322 95.6775 59.5277C96.7082 59.4538 97.6457 58.9866 98.4287 59.4657C98.2369 59.7708 97.9919 60.0044 97.9466 60.2642C97.7122 61.611 98.3221 62.7647 99.3049 63.68C100.631 64.9148 102.069 66.0685 103.553 67.153C105.284 68.4188 107.113 69.5796 108.917 70.7691C109.271 71.0027 109.332 71.21 109.148 71.5604C108.395 72.9978 107.092 73.987 105.779 75.0001C104.112 72.8715 101.734 71.5604 99.4673 70.1302C97.374 68.8073 95.334 67.4295 93.8985 65.4773C92.4816 63.5513 91.6986 61.468 92.0182 59.132C92.0742 58.7267 92.2127 58.3168 92.3938 57.9401C92.5349 57.6493 92.7666 57.5421 93.1341 57.8281C94.0103 58.5122 95.0969 58.8102 96.354 59.0128H96.3567Z" fill="url(#paint13_linear_371_738)"/>
<path d="M94.6932 72.3606C93.4761 72.2224 92.251 72.1294 91.0472 71.9316C90.2509 71.8004 89.5425 71.4501 89.2123 70.6682C89.167 70.704 89.1191 70.7397 89.0738 70.7755C89.1936 71.0424 89.3135 71.3118 89.4839 71.6908C89.1776 71.6693 88.9087 71.6884 88.6663 71.6264C87.609 71.3571 86.7994 70.7707 86.2747 69.9221C85.8246 69.1951 85.4305 68.4323 85.0949 67.6576C84.5649 66.4396 84.0323 65.231 83.0948 64.2061C83.0282 64.1322 82.9803 64.0416 82.9004 63.9272C83.5982 64.2514 84.256 64.5589 84.9111 64.864C84.9564 64.802 85.0017 64.74 85.047 64.678C84.8446 64.5279 84.6661 64.3419 84.4397 64.2347C83.5076 63.7913 83.0202 63.0786 83.0123 62.168C83.0043 60.7855 83.0922 59.403 83.1401 58.0204C83.1401 57.9656 83.18 57.9108 83.1933 57.8703C83.4277 58.2064 83.6541 58.5305 83.8805 58.8523C83.9391 58.8357 83.995 58.8166 84.0536 58.7999C83.7074 57.1838 84.493 55.918 85.5317 54.7095C86.0004 54.166 86.3546 53.5439 86.7861 52.9218C86.826 52.9432 86.9698 53.0266 87.1616 53.1315C87.2308 52.0136 88.0325 51.3223 88.8368 50.5905C89.5372 49.9541 90.0832 49.1842 90.6877 48.4667C90.8315 48.2974 90.9354 48.102 91.1378 47.9375C91.1271 48.0019 91.1325 48.071 91.1032 48.1258C90.6797 48.8934 90.6558 49.6966 90.7942 50.5238C90.8528 50.8694 90.8715 51.2198 90.9088 51.5702C90.978 52.2662 90.7916 52.8717 90.2643 53.4199C88.4133 55.3412 87.2015 57.5389 86.9592 60.0871C86.5091 64.8282 88.5172 68.5563 92.8662 71.276C93.4548 71.6431 94.1073 71.9268 94.7305 72.251C94.7199 72.2867 94.7065 72.3225 94.6959 72.3606H94.6932Z" fill="url(#paint14_linear_371_738)"/>
<path d="M77.6254 79.5575C78.443 78.8233 79.4284 78.3847 80.539 78.1225C80.0836 77.9199 79.6175 77.927 79.1621 78.0844C78.8851 78.1797 78.6268 78.318 78.3711 78.4538C76.5948 79.3858 74.7704 79.1546 73.3509 77.8079C72.6718 77.1643 71.998 76.5159 71.3189 75.8723C70.0991 74.7186 68.6663 74.3873 66.9938 74.9737C66.8793 75.0142 66.7541 75.0285 66.6289 75.0142C68.3547 74.2109 70.147 74.0154 72.0007 74.6233C72.6478 74.8354 73.271 75.1024 73.9129 75.3288C74.7784 75.6363 75.604 75.5934 76.4323 75.1644C78.0542 74.3277 79.6335 74.4969 81.1382 75.4075C80.9758 74.9236 80.7787 74.7854 79.3246 74.0273C79.764 74.0798 80.2327 74.0607 80.6375 74.1966C81.86 74.6137 83.0531 74.7567 84.3421 74.392C85.5672 74.0464 86.7337 74.3706 87.7138 75.0547C88.4621 75.5767 89.1919 76.0201 90.2172 75.9248C89.5008 76.5493 88.6006 76.709 87.6898 76.7638C86.771 76.821 85.8442 76.7757 84.9413 76.7757C85.1038 77.0498 85.3355 77.3406 85.458 77.6624C85.7616 78.4634 85.751 79.2381 85.0745 79.9174C84.3528 80.642 83.426 80.7588 82.4592 80.5324C81.8973 80.4013 81.346 80.1367 80.8613 79.8387C79.8306 79.2047 78.8026 78.8972 77.6201 79.5503L77.6254 79.5575Z" fill="url(#paint15_linear_371_738)"/>
<path d="M89.3634 79.7747C89.7895 79.491 90.1277 79.267 90.466 79.0405C90.434 78.9809 90.4021 78.919 90.3701 78.8594C89.7123 79.5459 88.868 79.4958 88.0344 79.4124C87.3473 79.3433 86.852 79.5626 86.4312 80.0345C85.752 80.7973 84.9025 81.2526 83.7599 81.1096C83.696 81.1024 83.6321 81.081 83.5469 81.0166C84.8146 80.988 85.3579 80.1918 85.9118 79.3647C86.1648 78.9881 86.5483 78.6663 86.9239 78.3731C87.097 78.2372 87.3899 78.2158 87.635 78.1681C87.7814 78.1395 87.9412 78.1633 88.1063 78.0561C87.872 77.9989 87.6376 77.9417 87.5071 77.9107C88.4659 77.3362 89.4353 76.6831 90.4766 76.1468C92.6099 75.0503 95.7232 75.5341 97.3584 77.2051C97.686 77.5412 97.8511 78.0179 98.0456 78.4446C98.184 78.7473 98.0376 78.9499 97.6594 79.0167C97.3371 79.0739 97.0202 79.1645 96.7139 79.2384C96.0641 77.9488 95.0068 77.2289 93.4834 77.0978C93.0253 77.0597 92.5939 77.1336 92.3542 77.5817C93.1399 77.6604 93.4967 77.956 93.4728 78.4637C93.4461 79.0119 92.6791 79.789 91.7976 79.6579V78.9285C91.5153 79.1835 91.2436 79.5959 90.8468 79.7413C90.4393 79.8891 89.912 79.7747 89.3687 79.7747H89.3634Z" fill="url(#paint16_linear_371_738)"/>
<path d="M92.5556 74.2109C92.5823 75.0976 91.6022 75.827 90.5342 75.6459C90.0016 75.5553 89.4823 75.3145 89.0109 75.0642C88.4356 74.7591 87.9509 74.3158 87.365 74.0369C86.7977 73.7675 86.1505 73.6316 85.5273 73.4314C85.5779 73.4195 85.6419 73.3885 85.7005 73.3957C87.6499 73.6221 89.5142 73.1525 91.3998 72.845C92.8992 72.5995 94.4013 72.4327 95.8634 72.9666C98.207 73.8247 99.8316 75.336 100.804 77.4241C100.929 77.691 100.884 77.8531 100.577 77.9819C100.159 78.1606 100.05 77.9008 99.9222 77.6553C98.8595 75.6292 97.0645 74.4588 94.6276 74.0536C93.9245 73.9368 93.2241 73.9558 92.5583 74.2085L92.5556 74.2109Z" fill="url(#paint17_linear_371_738)"/>
<path d="M111.853 82.4465C111.975 82.1081 112.068 81.8506 112.161 81.5932C111.386 82.4894 110.47 81.7982 109.549 81.9102C109.895 81.0974 109.693 80.163 110.83 79.8197C110.809 79.7744 110.787 79.7315 110.766 79.6862C110.428 79.7315 110.092 79.7768 109.725 79.8269C109.77 78.8234 110.5 78.268 111.496 77.8651C110.34 77.1905 110.127 76.187 110.132 75.0667C110.465 75.2335 110.777 75.3909 111.086 75.5458C110.023 74.3826 110.54 72.9261 110.031 71.6914C111.52 72.7807 112.782 74.0417 113.962 75.4219C113.909 75.4862 113.855 75.5673 113.781 75.6364C112.723 76.6256 112.486 77.8961 113.139 79.0903C113.831 80.3608 115.184 81.0807 116.654 80.983C116.809 80.9734 117.072 81.0664 117.12 81.1713C117.786 82.6706 117.978 84.2033 117.453 85.7742C117.437 85.8218 117.419 85.8695 117.389 85.91C117.371 85.9362 117.333 85.9505 117.27 85.9958C116.921 85.152 115.901 84.5728 116.204 83.493C116.156 83.4882 116.108 83.4834 116.06 83.4787C115.941 83.729 115.823 83.9816 115.706 84.2295C115 83.8124 114.521 83.1259 114.175 82.0461C113.807 82.1796 113.45 82.3631 113.07 82.4322C112.699 82.499 112.3 82.4465 111.855 82.4465H111.853Z" fill="url(#paint18_linear_371_738)"/>
<path d="M111.334 82.3725C111.305 82.5728 111.286 82.6848 111.265 82.8374C111.584 82.8517 111.891 82.866 112.197 82.8803C111.976 84.1961 109.973 84.7896 108.277 84.0101C108.381 83.879 108.479 83.7503 108.602 83.5954C108.122 83.5954 107.685 83.6359 107.262 83.5835C106.825 83.5286 106.399 83.3856 105.928 83.2712C106.215 82.5656 106.495 81.8791 106.783 81.1736C106.333 81.2975 106.325 81.0544 106.351 80.7111C106.511 78.778 108.301 77.9413 109.987 78.2321C109.805 78.5229 109.566 78.8042 109.457 79.1188C109.342 79.4454 109.353 79.8077 109.307 80.1724C109.443 80.1676 109.558 80.1629 109.64 80.1581C109.496 80.8827 109.358 81.5788 109.219 82.27C109.907 82.301 110.588 82.3344 111.339 82.3678L111.334 82.3725Z" fill="url(#paint19_linear_371_738)"/>
<path d="M104.136 85.5183C104.373 85.4015 104.565 85.3086 104.81 85.1894C103.987 84.8318 103.315 84.5386 102.594 84.2264C102.977 83.7282 103.339 83.2562 103.691 82.7986C103.616 82.7151 103.449 82.615 103.441 82.5054C103.361 81.2873 104.738 80.1026 106.189 80.2099C106.016 80.608 105.851 80.9846 105.67 81.3946C105.854 81.3779 106.027 81.3636 106.125 81.3541C105.827 82.1168 105.523 82.8987 105.222 83.6638C106.147 83.8045 107.007 83.938 107.907 84.0738C107.899 84.1739 107.891 84.2788 107.883 84.4171H108.871C107.654 86.0046 106.008 85.9212 104.136 85.5183Z" fill="url(#paint20_linear_371_738)"/>
<path d="M103.296 81.3254C103.131 81.8355 102.966 82.3361 102.798 82.8581H103.184C102.75 83.3944 102.364 83.8712 102.004 84.3145C102.71 84.6268 103.424 84.9438 104.145 85.2632C103.589 85.9831 102.159 86.0379 101.432 85.5302C101.376 85.4921 101.424 85.3347 101.424 85.3204C100.673 84.8938 99.9481 84.4814 99.2051 84.0595C99.8096 83.5637 100.385 83.0941 101 82.5911C100.859 82.0119 102.215 81.1609 103.296 81.3254Z" fill="url(#paint21_linear_371_738)"/>
<path d="M95.1328 82.9185C96.1448 83.4 97.0903 83.2022 98.0411 82.7898C98.0118 82.6825 97.9266 82.5443 97.9692 82.4942C98.3953 81.9865 99.8494 81.9245 100.47 82.4132C99.9107 82.9566 99.3514 83.5025 98.8294 84.0126C99.418 84.4345 100.028 84.8755 100.648 85.3236C99.8894 85.8242 99.6257 85.7884 98.2168 85.0209C98.2834 84.9494 98.3473 84.8779 98.4485 84.7659C96.9971 84.6061 95.9131 83.9697 95.1328 82.9209V82.9185Z" fill="url(#paint22_linear_371_738)"/>
<path d="M113.398 77.6767C113.601 77.2405 113.771 76.7876 114.019 76.3729C114.176 76.1083 114.429 76.0534 114.663 76.3657C115.516 77.5027 116.285 78.6755 116.754 79.9937C116.847 80.2559 116.773 80.3846 116.498 80.4227C116.301 80.4513 116.086 80.4775 115.899 80.437C114.554 80.1391 113.518 78.9448 113.398 77.6767Z" fill="url(#paint23_linear_371_738)"/>
<path d="M99.098 58.4105C98.9223 58.5607 98.7971 58.7466 98.7065 58.7323C97.8117 58.5964 96.8849 58.5178 96.0353 58.246C94.0326 57.6096 92.7675 56.2819 92.1257 54.4965C91.8567 53.7504 91.7209 52.9638 91.5371 52.2344C92.163 52.5801 92.7808 52.9233 93.4014 53.2666C93.4626 53.2213 93.5265 53.1784 93.5878 53.1331C91.7821 52.0842 92.0671 50.5587 92.2881 49.0403C92.36 48.5445 92.3627 48.0392 92.4 47.4623C92.9832 47.9152 93.5026 48.3204 94.0219 48.7257C94.0885 48.6827 94.1551 48.6398 94.2243 48.5969C93.1803 47.8985 93.3827 46.976 93.5079 46.0416C93.5745 45.5482 93.4733 45.0357 93.4466 44.4875C93.8328 44.8832 94.1817 45.2383 94.5279 45.5935C94.4587 44.8808 94.3016 44.2539 94.3575 43.6389C94.44 42.714 94.7223 41.7963 93.8488 40.8572C95.7397 41.6962 97.311 42.5472 97.8596 44.5209C98.592 42.9786 99.9902 42.2254 101.191 41.2862C102.456 40.2946 103.021 39.0408 102.478 37.4342C104.108 38.8716 104.472 40.4329 103.599 42.2158C103.258 42.9143 103.199 43.5936 103.764 44.2062C104.012 43.4101 104.251 42.6282 104.502 41.8464C104.744 41.0955 105.833 40.7117 105.591 39.6725C105.991 39.999 106.321 40.2708 106.651 40.5425C105.887 38.8048 107.104 37.3722 107.546 35.7656C108.337 37.1124 109.197 38.433 109.895 39.8179C110.35 40.7189 110.15 41.6867 109.764 42.6187C109.506 43.2432 109.352 43.9035 109.157 44.5256C108.72 44.18 108.164 43.7414 107.612 43.3028C106.664 44.3635 106.792 45.7294 107.975 46.8855C107.125 47.131 106.06 46.7996 104.725 45.8533C104.246 46.8926 103.349 47.3098 102.163 47.0309C101.138 46.7901 100.97 46.0297 101.101 45.2074C99.9663 45.0238 98.9462 45.5983 98.6107 46.6828C98.4269 47.2811 98.4695 47.9295 98.3577 48.5493C98.2618 49.0951 98.094 49.6291 97.9582 50.1678L97.7105 50.1344C97.4602 49.6005 97.2071 49.0641 96.9568 48.5302L96.6798 48.5397C96.4242 49.6338 96.0433 50.7184 95.9394 51.8244C95.7717 53.6122 96.2324 54.1437 98.2804 54.9899C97.9555 55.133 97.6626 55.2617 97.4069 55.3761C97.7185 56.8802 99.1407 57.1353 100.542 57.4833C100.318 57.6549 100.23 57.7216 100.012 57.8909C100.723 58.0554 101.327 58.2603 101.95 58.3176C102.486 58.3676 103.04 58.2556 103.586 58.2055C105.756 58.0124 108.302 59.7192 108.651 61.6905C108.459 61.5069 108.326 61.3853 108.201 61.2614C107.418 60.4724 106.486 60.0076 105.258 60.0433C104.401 60.0696 103.538 60.0052 102.677 59.9718C101.229 59.9146 99.9822 59.4713 99.1007 58.4081L99.098 58.4105Z" fill="url(#paint24_linear_371_738)"/>
<path d="M114.788 28.1562C115.291 28.5662 115.834 29.0096 116.415 29.4839C116.601 28.8308 116.473 28.2373 116.09 27.6533C115.696 27.0502 115.31 26.4424 114.974 25.8107C114.204 24.3614 114.412 22.9455 115.256 21.5821C115.712 20.8479 116.218 20.1376 116.684 19.4082C117.485 18.1472 117.696 16.8243 117.16 15.4298C116.726 14.2952 116.617 13.151 117.075 11.9949C117.848 10.057 118.292 8.08571 117.749 6.00715C117.848 6.00477 117.949 6.00238 118.047 6C118.181 6.91056 118.386 7.82113 118.426 8.73407C118.465 9.66371 118.394 10.6053 118.274 11.5325C118.079 13.039 118.484 14.4001 119.307 15.6944C120.106 16.9554 120.894 18.2235 121.057 19.7085C121.163 20.6763 120.886 21.5725 120.295 22.3711C119.603 23.3031 118.58 23.4437 117.635 22.6571C117.635 23.3293 117.571 23.8966 117.656 24.4472C117.714 24.8263 117.922 25.2124 118.159 25.539C119.033 26.7427 119.235 27.9512 118.601 29.3242C118.109 30.3921 118.718 31.3098 119.464 32.1513C119.712 32.4302 119.957 32.7687 120.023 33.1071C120.364 34.8901 120.649 36.6826 119.454 38.3369C119.318 38.5252 119.179 38.7088 118.958 38.8971C118.897 37.977 118.756 37.1189 117.941 36.4705C117.821 36.3752 117.933 36.0319 117.965 35.8055C118.117 34.7233 118.077 33.6721 117.395 32.6995C116.503 33.2788 115.696 33.1286 115.243 32.2204C114.99 31.7103 114.958 31.0977 114.902 30.528C114.827 29.7557 114.825 28.9762 114.788 28.1562Z" fill="url(#paint25_linear_371_738)"/>
<path d="M103.658 52.2455C104.092 52.2455 104.614 52.3122 105.11 52.2335C106.878 51.957 108.505 52.4028 110.162 52.8628C111.014 53.0988 111.944 53.1155 112.841 53.2204C113.352 53.28 113.89 53.2514 114.38 53.3777C116.258 53.8568 117.952 53.5374 119.451 52.4648C120.351 51.8188 121.297 51.5637 122.434 51.7783C123.276 51.938 124.101 51.8855 124.964 51.2109C124.964 51.5423 125.012 51.7306 124.956 51.8927C124.682 52.7007 123.609 53.3705 122.66 53.2657C121.603 53.1489 120.746 53.4039 119.792 53.8664C117.877 54.796 115.784 54.7126 113.717 54.1476C113.526 54.0952 113.304 53.9832 113.134 54.0213C111.629 54.3669 110.183 54.0022 108.724 53.7639C107.472 53.5589 106.558 53.9188 105.861 54.8794C105.509 55.3657 105.621 55.8591 105.986 56.2429C106.383 56.66 106.873 57.0247 107.384 57.3322C107.855 57.6135 108.396 57.8185 108.931 58.002C111.003 58.7052 112.679 59.7969 113.688 61.6276C114.095 62.3689 114.878 62.7098 115.909 62.798C115.555 63.5274 115.041 64.0184 114.309 64.2878C113.659 64.5261 113.046 64.3188 112.607 63.8682C112.095 63.3438 111.589 62.7932 111.219 62.1854C110.22 60.5478 108.902 59.201 107.078 58.2738C107.009 58.2404 106.95 58.1927 106.881 58.1617C104.971 57.2607 104.039 55.8591 104.042 53.914C104.042 53.3348 103.786 52.7532 103.664 52.2478L103.658 52.2455Z" fill="url(#paint26_linear_371_738)"/>
<path d="M102.268 51.4067C103.224 52.2029 103.408 53.1992 103.437 54.2528C103.477 55.6902 103.92 56.9297 105.547 57.5638C105.603 57.5852 105.637 57.6567 105.797 57.8379C104.716 57.8379 103.768 57.8617 102.82 57.8331C101.027 57.7807 99.7436 57.025 99.0671 55.5233C98.8167 54.9679 98.649 54.3839 98.5078 53.7237C99.1363 54.608 100.037 54.6008 101.187 54.2791C101.059 54.2552 100.913 54.2552 100.804 54.2004C99.3334 53.4877 98.7342 52.3197 98.7795 50.8871C98.8247 49.4211 98.9659 47.9552 99.0618 46.5273C99.3015 46.7133 99.5571 46.9493 99.8554 47.1328C100.258 47.3807 100.662 47.6667 101.115 47.7978C102.199 48.1101 102.977 48.656 103.448 49.6118C103.68 50.079 104.127 50.4604 104.476 50.8799C104.535 50.8394 104.591 50.8013 104.649 50.7607C104.399 50.222 104.149 49.6833 103.912 49.1732C104.91 49.321 105.85 49.4092 106.753 49.619C107.177 49.7167 107.651 49.9789 107.896 50.2935C108.612 51.2113 109.51 51.8668 110.679 52.241C110.796 52.2791 110.895 52.3602 111.022 52.4341C108.716 52.5843 107.19 51.0325 105.043 50.4199C105.387 50.8466 105.656 51.1779 105.973 51.5736C104.713 51.9931 103.509 51.7905 102.266 51.402L102.268 51.4067Z" fill="url(#paint27_linear_371_738)"/>
<path d="M115.794 42.5138C116.047 42.2063 116.3 41.9012 116.55 41.5937C116.617 41.6366 116.684 41.6772 116.75 41.7201C116.505 42.5448 116.886 43.2099 117.309 43.8987C117.656 44.4613 117.85 45.0977 118.124 45.7294C118.124 45.7294 118.303 45.6388 118.543 45.5149C118.657 46.4588 118.79 47.3527 118.867 48.2489C119.003 49.8102 117.853 51.4717 116.252 52.07C116.1 52.1272 115.925 52.1343 115.703 52.1057C116.849 51.4764 117.469 50.5849 117.783 49.4384C118.087 48.3252 117.746 47.367 117.251 46.4016C117.032 45.9773 116.897 45.3862 116.518 45.1907C115.461 44.6448 115.325 43.5364 114.524 42.8595C114.276 42.6497 114.145 42.3279 113.986 42.0919C113.626 42.695 113.283 43.279 112.928 43.8558C112.577 44.4327 112.217 45.0048 111.842 45.6102C111.81 45.584 111.639 45.4481 111.469 45.3099C109.674 48.2632 109.567 49.7816 111.599 51.7863C111.573 51.8507 111.546 51.915 111.52 51.9818C111.003 51.7958 110.42 51.6957 109.988 51.4097C108.979 50.7399 108.526 49.7888 108.622 48.6565C108.667 48.1226 108.771 47.5887 108.798 47.0547C108.83 46.3992 108.806 45.7413 108.806 45.0596C109.2 45.3289 109.679 45.6555 110.31 46.0846C110.175 45.7461 110.129 45.522 110.004 45.3409C109.573 44.714 109.621 44.1109 110.02 43.4911C110.385 42.9262 110.769 42.366 111.064 41.7701C111.277 41.3411 111.36 40.8596 111.52 40.3399C112.305 40.7213 112.667 41.4388 112.976 42.3112C113.344 41.6319 113.197 41.0622 112.79 40.6522C111.229 39.0813 111.448 37.489 112.561 35.8348C112.811 35.4653 113.011 35.0696 113.368 34.7383C113.245 35.01 113.133 35.2818 113.003 35.5487C112.204 37.1792 112.492 38.2542 114.034 39.3769C115.568 40.4925 115.735 40.8047 115.799 42.5186L115.794 42.5138Z" fill="url(#paint28_linear_371_738)"/>
<path d="M109.01 67.0193C108.355 65.6987 108.979 63.5081 110.403 62.3711C110.494 62.6404 110.656 62.8717 110.632 63.0862C110.531 64.0111 111.024 64.6737 111.786 65.1814C112.451 65.6248 113.184 65.9895 113.898 66.3757C115.661 67.3268 117.064 68.5496 117.754 70.4422C116.987 69.975 116.3 69.5555 115.613 69.136C115.565 69.1884 115.517 69.2408 115.466 69.2909C117.783 70.5662 118.414 72.5041 118.207 74.7924C117.954 73.2716 116.63 72.6995 115.336 72.0846C114.531 71.7032 113.708 71.3313 112.976 70.8522C112.015 70.2253 111.304 69.4649 111.735 68.2397C111.991 67.5151 111.599 66.7785 110.987 66.4686C110.406 66.1754 109.788 66.3494 109.013 67.0193H109.01Z" fill="url(#paint29_linear_371_738)"/>
<path d="M118.266 42.7291C118.09 41.206 118.905 40.0499 119.957 38.9891C120.407 38.5362 120.927 38.1406 121.382 37.69C123.031 36.062 123.222 34.1455 122.674 32.117C122.466 31.3447 121.723 31.0277 121.174 31.4162C121.025 31.5235 120.999 31.769 120.876 32.0312C120.29 32.1075 119.742 31.8286 119.355 31.1373C118.831 30.2005 119.236 28.787 120.253 27.8884C120.455 28.2841 120.668 28.6988 120.932 29.2137C121.065 29.0254 121.148 28.9586 121.132 28.9229C120.695 27.8216 121.395 27.0517 122.085 26.2818C122.554 25.755 123.036 25.2377 123.518 24.7109C123.558 24.7586 123.611 24.8039 123.603 24.8158C122.389 26.5774 123.364 28.3007 123.72 30.0313C123.957 31.1731 124.352 32.3006 124.455 33.4495C124.706 36.1836 123.499 38.3598 121.001 39.9498C119.848 40.6839 118.73 41.4396 118.261 42.7244L118.266 42.7291Z" fill="url(#paint30_linear_371_738)"/>
<path d="M125.022 47.8116C125.275 47.6924 125.552 47.5637 126.002 47.3515C125.717 48.3217 125.56 49.1464 125.227 49.9116C124.774 50.9604 123.616 51.4395 122.473 51.1749C123.043 49.5945 122.958 49.2632 121.863 49.0964C122.359 49.6184 122.67 50.1428 122.14 50.7363C121.73 51.1988 121.197 51.399 120.548 51.225C119.868 51.0438 119.179 50.2215 119.275 49.535C119.352 48.9772 119.634 48.4337 119.879 47.9045C120.036 47.5637 120.327 47.2728 120.497 46.9344C120.667 46.6007 120.761 46.236 120.915 45.8045C121.496 46.4481 121.277 47.1417 121.403 47.864C121.541 47.5899 121.757 47.3277 121.805 47.0416C121.943 46.2312 122.391 45.59 123.083 45.0989C124.359 44.1955 125.517 43.2087 126.244 41.6641C126.122 43.2969 126.087 44.739 125.874 46.1597C125.786 46.7365 125.309 47.2657 125.014 47.8092L125.022 47.8116Z" fill="url(#paint31_linear_371_738)"/>
<path d="M119.575 46.9085C119.357 45.9145 119.152 45.085 118.992 44.2507C118.75 42.9897 119.165 41.9481 120.342 41.1805C120.694 40.9517 121.043 40.7157 121.498 40.4154C121.607 40.9136 121.695 41.3283 121.786 41.7431C121.847 41.755 121.906 41.7669 121.967 41.7788C122.031 41.3998 122.065 41.0137 122.167 40.6418C122.257 40.3057 122.334 39.9172 122.572 39.6693C123.16 39.0495 123.839 38.5013 124.473 37.9173C125.107 37.3357 125.592 36.6969 125.562 35.8268C125.554 35.5932 125.674 35.3548 125.786 34.9258C125.986 36.4394 126.223 37.7361 126.311 39.04C126.439 40.9183 125.496 42.3676 123.818 43.4498C123.397 43.7215 122.936 43.948 122.478 44.1697C121.216 44.7823 119.924 45.3615 119.573 46.9061L119.575 46.9085Z" fill="url(#paint32_linear_371_738)"/>
<path d="M111.92 46.1954C112.095 46.5029 112.231 46.7436 112.367 46.9844C112.333 45.4827 113.526 44.4315 114.042 43.1133C114.479 44.4434 116.21 45.23 115.971 46.8819C116.088 46.653 116.208 46.4242 116.346 46.1572C116.57 46.5339 116.74 46.8723 116.961 47.1846C117.92 48.5481 117.097 50.4049 116.269 51.2106C115.59 51.8709 114.652 52.0354 113.848 51.6993C113.009 51.3489 112.575 50.6671 112.66 49.8281C112.74 49.0224 113.355 48.4074 114.314 48.1738C114.381 48.1571 114.447 48.1309 114.532 48.1023C113.8 47.8592 112.988 48.0856 112.463 48.6601C111.792 49.3966 111.853 50.126 112.772 51.4633C111.885 51.2511 111.318 50.8149 111.004 50.219C110.221 48.734 110.924 47.4659 111.922 46.193L111.92 46.1954ZM114.895 51.0581C115.369 50.9937 115.813 50.7935 115.84 50.2166C115.861 49.7018 115.321 49.2274 114.751 49.2274C114.165 49.2274 113.664 49.6445 113.667 50.1284C113.669 50.6362 114.202 51.0724 114.895 51.0557V51.0581Z" fill="url(#paint33_linear_371_738)"/>
<path d="M116.591 38.3428C116.93 37.8779 117.281 37.3988 117.705 36.8172C118.259 38.1473 119.132 39.2891 117.995 40.6811C117.62 41.1388 117.705 41.8968 117.561 42.6095C117.353 41.8968 117.161 41.2389 116.951 40.5214C116.746 40.7431 116.533 40.9767 116.264 41.2675C116.128 40.2878 115.524 39.6371 114.786 39.0745C113.784 38.3094 113.425 37.2892 113.931 36.1903C114.333 35.3155 114.871 34.4884 115.348 33.6445C115.737 34.4049 116.251 35.12 116.456 35.8995C116.661 36.6742 116.557 37.5156 116.589 38.3428H116.591Z" fill="url(#paint34_linear_371_738)"/>
<path d="M110.783 37.0619C111.532 36.2253 111.305 35.4101 110.887 34.5615C110.402 33.5722 110.533 32.6021 111.199 31.6963C111.91 30.7261 112.621 29.7536 113.428 28.6523C113.819 29.5581 114.187 30.3614 114.507 31.1814C114.597 31.4126 114.584 31.6915 114.549 31.9442C114.475 32.5044 114.142 32.9906 113.505 32.993C113.13 32.993 112.751 32.6188 112.275 32.359C111.857 32.7284 111.907 33.3172 112.168 33.925C112.565 34.8499 112.437 35.7176 111.79 36.5065C111.58 36.7616 111.263 36.9475 110.994 37.1668C110.924 37.1311 110.855 37.0977 110.786 37.0619H110.783Z" fill="url(#paint35_linear_371_738)"/>
<path d="M106.566 55.2891C107.443 56.5238 108.71 56.7455 109.943 57.0387C111.645 57.4439 113.176 58.0851 114.119 59.5249C114.228 59.6893 114.45 59.7942 114.703 59.9897C114.242 60.228 113.877 60.4187 113.432 60.6523C112.513 58.8789 110.812 58.1352 108.953 57.5464C108.324 57.3486 107.746 56.9982 107.19 56.6549C106.782 56.4046 106.348 56.1019 106.566 55.2891Z" fill="url(#paint36_linear_371_738)"/>
<path d="M109.313 61.1821C109.63 61.5229 109.774 61.6755 109.907 61.8209C108.128 63.971 107.79 66.5287 109.148 67.7181C109.231 67.6037 109.281 67.4678 109.385 67.4011C109.673 67.2151 110.027 66.8862 110.272 66.9363C110.547 66.9935 110.933 67.4249 110.903 67.6537C110.863 67.9708 110.544 68.407 110.224 68.5166C109.353 68.8122 108.23 68.1233 107.953 67.146C107.404 65.2105 107.91 63.4108 108.959 61.6993C109.047 61.5563 109.148 61.4204 109.311 61.1797L109.313 61.1821Z" fill="url(#paint37_linear_371_738)"/>
<path d="M120.544 57.9005C120.544 57.0901 120.611 56.5085 120.526 55.9459C120.438 55.381 120.198 54.8328 119.99 54.1606C120.302 54.0056 120.656 53.7696 121.056 53.6481C122.089 53.3334 122.592 53.6791 122.555 54.6516C122.518 55.6742 122.27 56.6396 121.418 57.3857C121.218 57.5621 120.944 57.6693 120.547 57.8982L120.544 57.9005Z" fill="url(#paint38_linear_371_738)"/>
<path d="M108.504 50.3865C107.785 49.1899 106.544 48.9611 105.204 48.8419C104.256 48.7585 103.316 48.5845 102.6 47.7788C103.345 47.8169 103.987 47.8479 104.802 47.8884C104.557 47.5571 104.427 47.3783 104.288 47.1924C106.52 46.9278 107.748 47.8408 108.501 50.3841L108.504 50.3865Z" fill="url(#paint39_linear_371_738)"/>
<path d="M117.142 55.8851C116.351 55.7588 115.549 55.6706 114.777 55.4846C114.524 55.4227 114.345 55.1056 114.135 54.903C114.412 54.8315 114.686 54.7123 114.966 54.698C116.385 54.6241 117.807 54.5717 119.23 54.524C119.416 54.5169 119.605 54.5765 119.791 54.6027C119.741 54.8172 119.768 55.1509 119.626 55.2248C119.147 55.4727 118.617 55.6634 118.084 55.8064C117.799 55.8827 117.466 55.8207 117.155 55.8207L117.142 55.8851Z" fill="url(#paint40_linear_371_738)"/>
<path d="M116.513 58.8516C116.745 59.6906 116.907 60.656 116.316 61.5594C116.132 61.8383 115.685 62.1982 115.413 62.1649C114.984 62.11 114.574 61.7859 114.22 61.507C114.127 61.4331 114.199 61.0493 114.332 60.9158C115.04 60.2031 115.794 59.5261 116.513 58.8539V58.8516Z" fill="url(#paint41_linear_371_738)"/>
<path d="M111.388 54.5755C109.878 55.827 108.197 55.0141 106.637 55.1262C106.946 54.3515 107.87 53.8819 108.845 54.0201C109.255 54.0774 109.652 54.1989 110.056 54.2871C110.458 54.3753 110.863 54.4611 111.388 54.5755Z" fill="url(#paint42_linear_371_738)"/>
<path d="M113.44 54.4688C113.565 55.5843 112.992 56.5402 111.967 56.8691V54.7214C112.401 54.6475 112.894 54.5617 113.44 54.4688Z" fill="url(#paint43_linear_371_738)"/>
</g>
<g filter="url(#filter2_d_371_738)">
<path d="M91.2342 122.915C90.5604 123.422 89.8254 123.866 89.2448 124.438C87.5882 126.071 87.0716 128.023 87.3965 130.19C87.6522 131.899 87.6282 131.903 87.1115 133.36C87.7454 133.114 88.3712 132.871 88.9998 132.628C87.8785 133.82 87.4045 135.236 87.1568 136.654C86.3605 141.236 82.7118 143.066 78.3042 144.146C76.5891 144.568 74.7914 144.716 73.0443 145.047C72.4504 145.159 71.8991 145.457 71.3238 145.669C71.1614 144.432 72.517 142.609 73.8433 142.251C75.5477 141.791 77.2762 141.383 78.9487 140.84C80.4135 140.363 81.6466 139.524 82.6426 138.437C82.8956 138.163 83.09 137.846 83.2472 137.634C82.4455 137.434 81.6173 137.384 80.9914 137.038C79.3109 136.108 78.9354 133.815 80.2297 132.409C81.0287 131.541 82.0061 130.807 82.9116 130.018C82.9515 129.982 83.0607 130.008 83.1247 130.006C83.1033 130.733 83.082 131.441 83.0581 132.187C83.636 131.846 83.8011 131.37 83.6227 130.838C83.1566 129.451 83.6493 128.256 84.5415 127.17C86.1448 125.217 88.286 123.871 90.7602 122.931C90.8587 122.893 90.9706 122.874 91.0771 122.86C91.1197 122.855 91.1676 122.888 91.2262 122.912L91.2342 122.915Z" fill="url(#paint44_linear_371_738)"/>
<path d="M92.7777 122.599C92.7431 123.403 92.7111 124.091 92.6711 124.983C92.9055 124.759 92.9961 124.711 92.9961 124.666C92.9987 123.057 94.0773 122.218 95.6353 121.746C96.7725 121.403 97.9231 121.1 99.1481 120.759C99.2041 121.324 99.2573 121.889 99.3133 122.456C99.3798 122.482 99.4491 122.511 99.5157 122.537C99.8566 120.106 101.998 119.417 104.025 118.578C105.338 118.035 106.664 117.472 107.852 116.745C109.231 115.899 109.878 114.638 109.655 113.093C109.623 112.876 109.636 112.652 109.708 112.426C110.272 113.627 110.464 114.869 109.924 116.118C109.234 117.708 108.027 118.917 106.336 119.734C105.423 120.177 104.512 120.638 103.657 121.164C102.882 121.641 102.411 122.33 102.349 123.207C102.291 124.068 101.862 124.702 100.877 125.002C101.705 125.259 102.496 124.742 102.863 123.748C103.202 122.833 103.803 122.38 105.039 122.194C104.701 122.649 104.371 123.021 104.128 123.431C103.702 124.146 103.34 124.892 102.933 125.617C101.692 127.829 98.8685 128.79 96.7086 127.748C96.2239 127.514 95.7951 127.278 95.9602 126.68C96.1334 126.056 96.5595 125.672 97.2812 125.66C97.7313 125.653 98.1867 125.76 98.738 125.827C98.2853 125.186 97.6461 125.09 96.9989 125.114C96.2292 125.143 95.5874 125.474 95.3424 126.144C95.1666 126.621 94.839 126.823 94.3836 127.042C92.4794 127.963 91.3528 129.34 91.3608 131.355C91.3715 133.297 90.4154 134.499 88.4872 134.885C88.8121 134.506 89.1051 134.203 89.3527 133.874C90.181 132.766 90.1704 132.298 89.2063 131.316C88.093 130.187 87.7948 128.906 88.1996 127.469C88.2155 127.407 88.2715 127.355 88.3141 127.288C88.5857 127.586 88.8387 127.862 89.0917 128.141L89.2382 128.053C89.1956 127.943 89.1503 127.836 89.1104 127.727C88.7136 126.644 88.7429 125.624 89.7735 124.821C90.7589 124.053 91.7896 123.329 92.7857 122.597L92.7777 122.599Z" fill="url(#paint45_linear_371_738)"/>
<path d="M70.709 148.282C70.9567 147.979 71.1298 147.547 71.4653 147.397C72.4561 146.949 73.4788 146.401 74.5414 146.282C76.1899 146.098 77.8838 146.222 79.5563 146.241C81.3859 146.263 83.1836 146.148 84.8748 145.445C85.1331 145.338 85.3621 145.178 85.7962 144.935C85.3462 144.861 85.1304 144.825 84.6484 144.744C85.0665 144.468 85.3142 144.287 85.5805 144.129C86.8642 143.376 88.2571 142.737 89.4076 141.846C90.2705 141.176 90.875 140.213 91.4929 139.326C91.7166 139.007 91.7752 138.494 91.674 138.122C91.5941 137.824 91.192 137.548 90.8564 137.383C90.7339 137.324 90.1853 137.634 90.1986 137.746C90.2279 138.025 90.4649 138.285 90.7099 138.709C90.3211 138.69 89.839 138.773 89.4715 138.625C88.7258 138.325 88.2571 137.762 88.3183 136.985C88.3929 136.049 88.819 135.269 89.7991 134.826C90.8005 134.373 91.8125 133.946 92.9018 133.472C92.979 133.825 93.0616 134.192 93.1548 134.611C93.778 133.346 95.1522 133.133 96.3879 132.711C97.629 132.287 98.8621 131.841 99.9807 131.446C100.047 131.348 100.002 131.436 99.9354 131.505C99.8475 131.598 99.7436 131.682 99.6424 131.763C98.3374 132.8 97.4932 134.096 96.8141 135.522C96.063 137.102 95.3253 138.706 94.3532 140.18C93.011 142.215 91.0348 143.574 88.3023 143.858C88.1399 143.874 87.9828 143.929 87.8256 143.974C87.7511 143.996 87.6818 144.041 87.3649 144.198C88.321 144.306 89.0481 144.387 89.9988 144.494C89.2025 144.964 88.5314 145.405 87.8176 145.774C84.398 147.547 80.7068 147.81 76.877 147.357C76.0381 147.257 75.1779 147.281 74.3257 147.271C73.2684 147.259 72.3309 147.564 71.5186 148.177C71.3615 148.296 71.1724 148.379 70.9966 148.479L70.7116 148.274L70.709 148.282Z" fill="url(#paint46_linear_371_738)"/>
<path d="M102.175 128.369C101.139 129.158 100.137 129.988 99.0479 130.712C98.6377 130.984 98.0279 131.063 97.4926 131.127C96.6084 131.232 96.2462 130.891 96.2728 130.102C95.4658 130.405 95.4978 130.867 96.382 131.702C95.5937 132.14 95.3114 132.047 95.0903 131.275C94.6535 129.745 95.7162 128.651 97.4579 128.841C99.8895 129.106 100.374 129.037 102.02 128.195C102.071 128.255 102.121 128.312 102.175 128.372V128.369Z" fill="url(#paint47_linear_371_738)"/>
<path d="M91.7754 133.271C92.9019 132.754 93.0058 131.774 93.2854 130.875C93.2242 130.84 93.1629 130.804 93.1017 130.768C92.7608 131.257 92.4199 131.746 92.0657 132.248C91.6635 129.967 93.4266 127.71 95.7303 127.739C94.6517 128.718 94.5878 129.91 94.4386 131.102C94.3081 132.158 93.1336 133.085 91.7754 133.269V133.271Z" fill="url(#paint48_linear_371_738)"/>
<path d="M88.6607 138.988C88.3225 142.29 80.1517 146.626 77.0703 145.145C79.4512 145.014 81.6564 144.406 83.6964 143.319C85.7365 142.232 87.3371 140.747 88.6607 138.988Z" fill="url(#paint49_linear_371_738)"/>
<path d="M74.3298 136.232C73.893 138.034 72.548 138.94 70.6412 139.174C69.5066 139.312 68.3215 139.374 67.1949 139.235C66.0391 139.095 65.0191 139.112 64.0816 139.777C63.999 139.834 63.8446 139.81 63.5703 139.843C63.999 139.429 64.324 139.114 64.6595 138.787C64.1535 138.69 63.6875 138.635 63.248 138.508C61.7353 138.072 60.2306 137.612 58.7205 137.162C57.8922 136.914 57.1678 137.054 56.4994 137.569C56.1425 137.846 55.7057 138.041 55.3062 138.275C55.2636 138.23 55.2237 138.182 55.1811 138.137C55.8628 137.505 56.5473 136.873 57.2637 136.211C55.2476 136.122 53.4952 135.448 51.7481 134.807C50.4725 134.337 49.234 134.111 47.9264 134.64C47.8012 134.69 47.6388 134.668 47.2792 134.695C47.9131 134.335 48.3632 134.082 48.7493 133.863C46.9197 132.976 45.122 132.092 43.311 131.233C42.3363 130.771 41.2949 130.609 40.195 130.797C40.0112 130.828 39.8088 130.781 39.6144 130.769C39.5984 130.7 39.5851 130.628 39.5691 130.559C40.219 130.33 40.8661 130.104 41.4041 129.913C39.9074 128.998 38.352 128.037 36.7887 127.091C36.1735 126.719 35.5423 126.373 34.9138 126.02C34.0163 125.517 33.0628 125.441 32.0615 125.725C31.907 125.768 31.7419 125.789 31.5821 125.82C31.5528 125.749 31.5235 125.677 31.4942 125.606C32.1707 125.332 32.8471 125.057 33.3238 124.867C32.6767 124.471 31.9256 124.082 31.2678 123.594C30.4875 123.015 29.8057 122.328 29.0414 121.725C28.3276 121.16 27.518 120.879 26.5326 121.186C26.1837 121.296 25.7789 121.258 25.4007 121.286C25.3954 121.224 25.3901 121.162 25.3874 121.098C26.1677 120.862 26.9507 120.629 27.7816 120.378C27.6032 120.216 27.3981 120.061 27.2383 119.875C26.3302 118.831 25.2729 117.859 24.5644 116.712C23.097 114.34 22.9292 111.852 24.2981 109.351C25.3075 107.509 26.6151 105.998 28.2557 104.636C29.0014 103.123 29.084 102.639 29.7471 101.454C29.9256 100.987 30.5301 100.131 30.6792 99.707C30.5541 99.7595 29.8856 100.024 29.7604 100.079C25.8641 101.752 22.2288 103.769 19.443 106.808C16.8224 109.666 15.7491 112.865 16.8863 116.524C17.5734 118.731 18.921 120.607 20.5563 122.323C23.1929 125.091 26.2796 127.446 29.4888 129.639C36.7514 134.602 44.901 138.072 53.5485 140.637C57.6073 141.841 61.7486 142.735 66.0444 142.821C67.4453 142.849 68.8515 142.625 70.1884 142.52C69.9487 142.913 69.6744 143.326 69.4134 143.753C70.5852 143.579 72.1725 143.102 73.3124 141.827C73.4589 141.638 73.592 141.44 73.7225 141.243C73.8983 140.978 74.0395 140.709 74.1593 140.439C74.3963 139.703 74.5295 138.938 74.5961 138.234C74.5961 137.576 74.4949 136.909 74.3377 136.234L74.3298 136.232Z" fill="url(#paint50_linear_371_738)"/>
<path d="M69.2446 144.014C69.1008 144.257 68.965 144.505 68.8398 144.76C68.6001 145.258 68.3791 145.401 67.7559 145.297C60.3255 144.057 53.1028 142.181 46.1171 139.592C38.2738 136.687 30.878 133.085 24.4197 128.086C21.2611 125.641 18.4407 122.923 16.4486 119.598C15.2395 117.577 14.4352 115.446 14.4325 113.122C14.4298 110.159 15.9825 107.818 18.2756 105.856C21.9082 102.748 26.521 100.619 31.0671 98.8436C31.424 98.3239 32.7689 95.5922 33.0539 94.8438C32.5745 94.9081 32.1138 94.9796 32.0978 94.982C25.4956 96.7269 19.4767 99.4252 14.5337 103.837C10.8824 107.096 9.33773 110.941 10.2619 115.524C10.7732 118.063 11.9477 120.356 13.4977 122.502C16.9466 127.276 21.586 130.997 26.7633 134.186C39.2965 141.902 53.2466 146.491 68.1101 149.02C69.1062 149.189 69.519 148.939 69.7427 148.009C70.1315 146.384 70.7387 144.86 71.7667 143.518C71.0929 143.864 70.262 144.052 69.2446 144.014Z" fill="url(#paint51_linear_371_738)"/>
</g>
<defs>
<filter id="filter0_d_371_738" x="85.6328" y="79.3164" width="42.0273" height="43.2344" filterUnits="userSpaceOnUse" color-interpolation-filters="sRGB">
<feFlood flood-opacity="0" result="BackgroundImageFix"/>
<feColorMatrix in="SourceAlpha" type="matrix" values="0 0 0 0 0 0 0 0 0 0 0 0 0 0 0 0 0 0 127 0" result="hardAlpha"/>
<feOffset dy="4"/>
<feGaussianBlur stdDeviation="5"/>
<feColorMatrix type="matrix" values="0 0 0 0 0.0941176 0 0 0 0 0.188235 0 0 0 0 0.0941176 0 0 0 0.55 0"/>
<feBlend mode="normal" in2="BackgroundImageFix" result="effect1_dropShadow_371_738"/>
<feBlend mode="normal" in="SourceGraphic" in2="effect1_dropShadow_371_738" result="shape"/>
</filter>
<filter id="filter1_d_371_738" x="56.6289" y="0" width="79.6934" height="99.9961" filterUnits="userSpaceOnUse" color-interpolation-filters="sRGB">
<feFlood flood-opacity="0" result="BackgroundImageFix"/>
<feColorMatrix in="SourceAlpha" type="matrix" values="0 0 0 0 0 0 0 0 0 0 0 0 0 0 0 0 0 0 127 0" result="hardAlpha"/>
<feOffset dy="4"/>
<feGaussianBlur stdDeviation="5"/>
<feColorMatrix type="matrix" values="0 0 0 0 0.0941176 0 0 0 0 0.188235 0 0 0 0 0.0941176 0 0 0 0.55 0"/>
<feBlend mode="normal" in2="BackgroundImageFix" result="effect1_dropShadow_371_738"/>
<feBlend mode="normal" in="SourceGraphic" in2="effect1_dropShadow_371_738" result="shape"/>
</filter>
<filter id="filter2_d_371_738" x="0" y="88.8438" width="120.244" height="74.2266" filterUnits="userSpaceOnUse" color-interpolation-filters="sRGB">
<feFlood flood-opacity="0" result="BackgroundImageFix"/>
<feColorMatrix in="SourceAlpha" type="matrix" values="0 0 0 0 0 0 0 0 0 0 0 0 0 0 0 0 0 0 127 0" result="hardAlpha"/>
<feOffset dy="4"/>
<feGaussianBlur stdDeviation="5"/>
<feColorMatrix type="matrix" values="0 0 0 0 0.0941176 0 0 0 0 0.188235 0 0 0 0 0.0941176 0 0 0 0.55 0"/>
<feBlend mode="normal" in2="BackgroundImageFix" result="effect1_dropShadow_371_738"/>
<feBlend mode="normal" in="SourceGraphic" in2="effect1_dropShadow_371_738" result="shape"/>
</filter>
<linearGradient id="paint0_linear_371_738" x1="50.0265" y1="77.7971" x2="58.2536" y2="36.5054" gradientUnits="userSpaceOnUse">
<stop stop-color="#FFFCE6"/>
<stop offset="0.16" stop-color="#E8F2D8"/>
<stop offset="0.78" stop-color="#4EBFCD"/>
<stop offset="1" stop-color="#35AED0"/>
</linearGradient>
<linearGradient id="paint1_linear_371_738" x1="28.6247" y1="115.511" x2="55.3896" y2="80.8326" gradientUnits="userSpaceOnUse">
<stop stop-color="#188FB7"/>
<stop offset="0.32" stop-color="#1599B0"/>
<stop offset="0.62" stop-color="#02B2A7"/>
<stop offset="1" stop-color="#00B19D"/>
</linearGradient>
<linearGradient id="paint2_linear_371_738" x1="17.772" y1="94.8539" x2="65.0419" y2="94.8539" gradientUnits="userSpaceOnUse">
<stop stop-color="#1495B2"/>
<stop offset="0.29" stop-color="#00B3A7"/>
<stop offset="0.78" stop-color="#4EBFCD"/>
<stop offset="1" stop-color="#35AED0"/>
</linearGradient>
<linearGradient id="paint3_linear_371_738" x1="18.0703" y1="128.261" x2="64.8927" y2="128.261" gradientUnits="userSpaceOnUse">
<stop stop-color="#00345A"/>
<stop offset="0.52" stop-color="#0A4F80"/>
<stop offset="1" stop-color="#007285"/>
</linearGradient>
<linearGradient id="paint4_linear_371_738" x1="48.2606" y1="50.3944" x2="77.0407" y2="83.7678" gradientUnits="userSpaceOnUse">
<stop stop-color="#35AED0"/>
<stop offset="0.22" stop-color="#4EBFCD"/>
<stop offset="0.71" stop-color="#E8F2D8"/>
<stop offset="1" stop-color="#FFFCE6"/>
</linearGradient>
<linearGradient id="paint5_linear_371_738" x1="78.1475" y1="90.723" x2="101.886" y2="126.371" gradientUnits="userSpaceOnUse">
<stop offset="0.02" stop-color="#B3DFC4"/>
<stop offset="0.32" stop-color="#87CEC0"/>
<stop offset="0.72" stop-color="#52BCBC"/>
<stop offset="1" stop-color="#30B2B4"/>
</linearGradient>
<linearGradient id="paint6_linear_371_738" x1="64.8926" y1="128.261" x2="111.712" y2="128.261" gradientUnits="userSpaceOnUse">
<stop stop-color="#046383"/>
<stop offset="0.48" stop-color="#0A4F80"/>
<stop offset="1" stop-color="#00345A"/>
</linearGradient>
<linearGradient id="paint7_linear_371_738" x1="98.7077" y1="96.7771" x2="110.501" y2="96.7771" gradientUnits="userSpaceOnUse">
<stop stop-color="#757B2F"/>
<stop offset="0.33" stop-color="#F7F195"/>
<stop offset="0.87" stop-color="#928D34"/>
<stop offset="0.99" stop-color="#6B742C"/>
</linearGradient>
<linearGradient id="paint8_linear_371_738" x1="102.031" y1="96.932" x2="117.662" y2="96.932" gradientUnits="userSpaceOnUse">
<stop stop-color="#CA9156"/>
<stop offset="0.18" stop-color="#E8BC6A"/>
<stop offset="0.31" stop-color="#EDD07A"/>
<stop offset="0.33" stop-color="#EED57C"/>
<stop offset="0.42" stop-color="#F1E282"/>
<stop offset="0.49" stop-color="#F2E784"/>
<stop offset="0.59" stop-color="#EED87D"/>
<stop offset="0.69" stop-color="#ECCD78"/>
<stop offset="0.78" stop-color="#E9C06D"/>
<stop offset="0.86" stop-color="#E8BC6A"/>
<stop offset="1" stop-color="#CA9156"/>
</linearGradient>
<linearGradient id="paint9_linear_371_738" x1="95.6355" y1="91.9677" x2="100.254" y2="91.9677" gradientUnits="userSpaceOnUse">
<stop stop-color="#CA9156"/>
<stop offset="0.18" stop-color="#E8BC6A"/>
<stop offset="0.31" stop-color="#EDD07A"/>
<stop offset="0.33" stop-color="#EED57C"/>
<stop offset="0.42" stop-color="#F1E282"/>
<stop offset="0.49" stop-color="#F2E784"/>
<stop offset="0.59" stop-color="#EED87D"/>
<stop offset="0.69" stop-color="#ECCD78"/>
<stop offset="0.78" stop-color="#E9C06D"/>
<stop offset="0.86" stop-color="#E8BC6A"/>
<stop offset="1" stop-color="#CA9156"/>
</linearGradient>
<linearGradient id="paint10_linear_371_738" x1="97.1577" y1="86.0898" x2="115.164" y2="86.0898" gradientUnits="userSpaceOnUse">
<stop stop-color="#CA9156"/>
<stop offset="0.18" stop-color="#E8BC6A"/>
<stop offset="0.31" stop-color="#EDD07A"/>
<stop offset="0.33" stop-color="#EED57C"/>
<stop offset="0.42" stop-color="#F1E282"/>
<stop offset="0.49" stop-color="#F2E784"/>
<stop offset="0.59" stop-color="#EED87D"/>
<stop offset="0.69" stop-color="#ECCD78"/>
<stop offset="0.78" stop-color="#E9C06D"/>
<stop offset="0.86" stop-color="#E8BC6A"/>
<stop offset="1" stop-color="#CA9156"/>
</linearGradient>
<linearGradient id="paint11_linear_371_738" x1="96.5775" y1="77.2208" x2="109.35" y2="77.2208" gradientUnits="userSpaceOnUse">
<stop stop-color="#CA9156"/>
<stop offset="0.18" stop-color="#E8BC6A"/>
<stop offset="0.31" stop-color="#EDD07A"/>
<stop offset="0.33" stop-color="#EED57C"/>
<stop offset="0.42" stop-color="#F1E282"/>
<stop offset="0.49" stop-color="#F2E784"/>
<stop offset="0.59" stop-color="#EED87D"/>
<stop offset="0.69" stop-color="#ECCD78"/>
<stop offset="0.78" stop-color="#E9C06D"/>
<stop offset="0.86" stop-color="#E8BC6A"/>
<stop offset="1" stop-color="#CA9156"/>
</linearGradient>
<linearGradient id="paint12_linear_371_738" x1="87.2342" y1="65.6011" x2="104.929" y2="65.6011" gradientUnits="userSpaceOnUse">
<stop stop-color="#757B2F"/>
<stop offset="0.33" stop-color="#F7F195"/>
<stop offset="0.87" stop-color="#928D34"/>
<stop offset="0.99" stop-color="#6B742C"/>
</linearGradient>
<linearGradient id="paint13_linear_371_738" x1="91.949" y1="66.3283" x2="109.249" y2="66.3283" gradientUnits="userSpaceOnUse">
<stop stop-color="#CA9156"/>
<stop offset="0.18" stop-color="#E8BC6A"/>
<stop offset="0.31" stop-color="#EDD07A"/>
<stop offset="0.33" stop-color="#EED57C"/>
<stop offset="0.42" stop-color="#F1E282"/>
<stop offset="0.49" stop-color="#F2E784"/>
<stop offset="0.59" stop-color="#EED87D"/>
<stop offset="0.69" stop-color="#ECCD78"/>
<stop offset="0.78" stop-color="#E9C06D"/>
<stop offset="0.86" stop-color="#E8BC6A"/>
<stop offset="1" stop-color="#CA9156"/>
</linearGradient>
<linearGradient id="paint14_linear_371_738" x1="82.9031" y1="60.1491" x2="94.7305" y2="60.1491" gradientUnits="userSpaceOnUse">
<stop stop-color="#CA9156"/>
<stop offset="0.18" stop-color="#E8BC6A"/>
<stop offset="0.31" stop-color="#EDD07A"/>
<stop offset="0.33" stop-color="#EED57C"/>
<stop offset="0.42" stop-color="#F1E282"/>
<stop offset="0.49" stop-color="#F2E784"/>
<stop offset="0.59" stop-color="#EED87D"/>
<stop offset="0.69" stop-color="#ECCD78"/>
<stop offset="0.78" stop-color="#E9C06D"/>
<stop offset="0.86" stop-color="#E8BC6A"/>
<stop offset="1" stop-color="#CA9156"/>
</linearGradient>
<linearGradient id="paint15_linear_371_738" x1="66.6262" y1="77.3359" x2="90.2172" y2="77.3359" gradientUnits="userSpaceOnUse">
<stop stop-color="#F1AE39"/>
<stop offset="0.11" stop-color="#C47C2A"/>
<stop offset="0.22" stop-color="#F4AE35"/>
<stop offset="0.33" stop-color="#F3B437"/>
<stop offset="0.48" stop-color="#FDD649"/>
<stop offset="0.59" stop-color="#F3B437"/>
<stop offset="0.69" stop-color="#F4AE35"/>
<stop offset="0.87" stop-color="#C47C2A"/>
<stop offset="1" stop-color="#F1AE39"/>
</linearGradient>
<linearGradient id="paint16_linear_371_738" x1="83.5469" y1="78.3493" x2="98.0935" y2="78.3493" gradientUnits="userSpaceOnUse">
<stop stop-color="#F1AE39"/>
<stop offset="0.11" stop-color="#C47C2A"/>
<stop offset="0.22" stop-color="#F4AE35"/>
<stop offset="0.33" stop-color="#F3B437"/>
<stop offset="0.48" stop-color="#FDD649"/>
<stop offset="0.59" stop-color="#F3B437"/>
<stop offset="0.69" stop-color="#F4AE35"/>
<stop offset="0.87" stop-color="#C47C2A"/>
<stop offset="1" stop-color="#F1AE39"/>
</linearGradient>
<linearGradient id="paint17_linear_371_738" x1="85.5247" y1="75.3264" x2="100.865" y2="75.3264" gradientUnits="userSpaceOnUse">
<stop stop-color="#F1AE39"/>
<stop offset="0.11" stop-color="#C47C2A"/>
<stop offset="0.22" stop-color="#F4AE35"/>
<stop offset="0.33" stop-color="#F3B437"/>
<stop offset="0.48" stop-color="#FDD649"/>
<stop offset="0.59" stop-color="#F3B437"/>
<stop offset="0.69" stop-color="#F4AE35"/>
<stop offset="0.87" stop-color="#C47C2A"/>
<stop offset="1" stop-color="#F1AE39"/>
</linearGradient>
<linearGradient id="paint18_linear_371_738" x1="109.549" y1="78.8448" x2="117.757" y2="78.8448" gradientUnits="userSpaceOnUse">
<stop stop-color="#CA9156"/>
<stop offset="0.18" stop-color="#E8BC6A"/>
<stop offset="0.31" stop-color="#EDD07A"/>
<stop offset="0.33" stop-color="#EED57C"/>
<stop offset="0.42" stop-color="#F1E282"/>
<stop offset="0.49" stop-color="#F2E784"/>
<stop offset="0.59" stop-color="#EED87D"/>
<stop offset="0.69" stop-color="#ECCD78"/>
<stop offset="0.78" stop-color="#E9C06D"/>
<stop offset="0.86" stop-color="#E8BC6A"/>
<stop offset="1" stop-color="#CA9156"/>
</linearGradient>
<linearGradient id="paint19_linear_371_738" x1="105.922" y1="81.2689" x2="112.194" y2="81.2689" gradientUnits="userSpaceOnUse">
<stop stop-color="#F1AE39"/>
<stop offset="0.11" stop-color="#C47C2A"/>
<stop offset="0.22" stop-color="#F4AE35"/>
<stop offset="0.33" stop-color="#F3B437"/>
<stop offset="0.48" stop-color="#FDD649"/>
<stop offset="0.59" stop-color="#F3B437"/>
<stop offset="0.69" stop-color="#F4AE35"/>
<stop offset="0.87" stop-color="#C47C2A"/>
<stop offset="1" stop-color="#F1AE39"/>
</linearGradient>
<linearGradient id="paint20_linear_371_738" x1="102.594" y1="82.9845" x2="108.871" y2="82.9845" gradientUnits="userSpaceOnUse">
<stop stop-color="#F1AE39"/>
<stop offset="0.11" stop-color="#C47C2A"/>
<stop offset="0.22" stop-color="#F4AE35"/>
<stop offset="0.33" stop-color="#F3B437"/>
<stop offset="0.48" stop-color="#FDD649"/>
<stop offset="0.59" stop-color="#F3B437"/>
<stop offset="0.69" stop-color="#F4AE35"/>
<stop offset="0.87" stop-color="#C47C2A"/>
<stop offset="1" stop-color="#F1AE39"/>
</linearGradient>
<linearGradient id="paint21_linear_371_738" x1="99.2051" y1="83.5851" x2="104.143" y2="83.5851" gradientUnits="userSpaceOnUse">
<stop stop-color="#F1AE39"/>
<stop offset="0.11" stop-color="#C47C2A"/>
<stop offset="0.22" stop-color="#F4AE35"/>
<stop offset="0.33" stop-color="#F3B437"/>
<stop offset="0.48" stop-color="#FDD649"/>
<stop offset="0.59" stop-color="#F3B437"/>
<stop offset="0.69" stop-color="#F4AE35"/>
<stop offset="0.87" stop-color="#C47C2A"/>
<stop offset="1" stop-color="#F1AE39"/>
</linearGradient>
<linearGradient id="paint22_linear_371_738" x1="95.1328" y1="83.8672" x2="100.651" y2="83.8672" gradientUnits="userSpaceOnUse">
<stop stop-color="#F1AE39"/>
<stop offset="0.11" stop-color="#C47C2A"/>
<stop offset="0.22" stop-color="#F4AE35"/>
<stop offset="0.33" stop-color="#F3B437"/>
<stop offset="0.48" stop-color="#FDD649"/>
<stop offset="0.59" stop-color="#F3B437"/>
<stop offset="0.69" stop-color="#F4AE35"/>
<stop offset="0.87" stop-color="#C47C2A"/>
<stop offset="1" stop-color="#F1AE39"/>
</linearGradient>
<linearGradient id="paint23_linear_371_738" x1="113.398" y1="78.306" x2="116.794" y2="78.306" gradientUnits="userSpaceOnUse">
<stop stop-color="#F1AE39"/>
<stop offset="0.11" stop-color="#C47C2A"/>
<stop offset="0.22" stop-color="#F4AE35"/>
<stop offset="0.33" stop-color="#F3B437"/>
<stop offset="0.48" stop-color="#FDD649"/>
<stop offset="0.59" stop-color="#F3B437"/>
<stop offset="0.69" stop-color="#F4AE35"/>
<stop offset="0.87" stop-color="#C47C2A"/>
<stop offset="1" stop-color="#F1AE39"/>
</linearGradient>
<linearGradient id="paint24_linear_371_738" x1="91.5371" y1="48.7304" x2="110.158" y2="48.7304" gradientUnits="userSpaceOnUse">
<stop stop-color="#F1AE39"/>
<stop offset="0.11" stop-color="#C47C2A"/>
<stop offset="0.22" stop-color="#F4AE35"/>
<stop offset="0.33" stop-color="#F3B437"/>
<stop offset="0.48" stop-color="#FDD649"/>
<stop offset="0.59" stop-color="#F3B437"/>
<stop offset="0.69" stop-color="#F4AE35"/>
<stop offset="0.87" stop-color="#C47C2A"/>
<stop offset="1" stop-color="#F1AE39"/>
</linearGradient>
<linearGradient id="paint25_linear_371_738" x1="114.497" y1="22.4473" x2="121.083" y2="22.4473" gradientUnits="userSpaceOnUse">
<stop stop-color="#F1AE39"/>
<stop offset="0.11" stop-color="#C47C2A"/>
<stop offset="0.22" stop-color="#F4AE35"/>
<stop offset="0.33" stop-color="#F3B437"/>
<stop offset="0.48" stop-color="#FDD649"/>
<stop offset="0.59" stop-color="#F3B437"/>
<stop offset="0.69" stop-color="#F4AE35"/>
<stop offset="0.87" stop-color="#C47C2A"/>
<stop offset="1" stop-color="#F1AE39"/>
</linearGradient>
<linearGradient id="paint26_linear_371_738" x1="103.658" y1="57.797" x2="124.98" y2="57.797" gradientUnits="userSpaceOnUse">
<stop stop-color="#F1AE39"/>
<stop offset="0.11" stop-color="#C47C2A"/>
<stop offset="0.22" stop-color="#F4AE35"/>
<stop offset="0.33" stop-color="#F3B437"/>
<stop offset="0.48" stop-color="#FDD649"/>
<stop offset="0.59" stop-color="#F3B437"/>
<stop offset="0.69" stop-color="#F4AE35"/>
<stop offset="0.87" stop-color="#C47C2A"/>
<stop offset="1" stop-color="#F1AE39"/>
</linearGradient>
<linearGradient id="paint27_linear_371_738" x1="98.5078" y1="52.1862" x2="111.022" y2="52.1862" gradientUnits="userSpaceOnUse">
<stop stop-color="#CA9156"/>
<stop offset="0.18" stop-color="#E8BC6A"/>
<stop offset="0.31" stop-color="#EDD07A"/>
<stop offset="0.33" stop-color="#EED57C"/>
<stop offset="0.42" stop-color="#F1E282"/>
<stop offset="0.49" stop-color="#F2E784"/>
<stop offset="0.59" stop-color="#EED87D"/>
<stop offset="0.69" stop-color="#ECCD78"/>
<stop offset="0.78" stop-color="#E9C06D"/>
<stop offset="0.86" stop-color="#E8BC6A"/>
<stop offset="1" stop-color="#CA9156"/>
</linearGradient>
<linearGradient id="paint28_linear_371_738" x1="108.606" y1="43.4268" x2="118.881" y2="43.4268" gradientUnits="userSpaceOnUse">
<stop stop-color="#F1AE39"/>
<stop offset="0.11" stop-color="#C47C2A"/>
<stop offset="0.22" stop-color="#F4AE35"/>
<stop offset="0.33" stop-color="#F3B437"/>
<stop offset="0.48" stop-color="#FDD649"/>
<stop offset="0.59" stop-color="#F3B437"/>
<stop offset="0.69" stop-color="#F4AE35"/>
<stop offset="0.87" stop-color="#C47C2A"/>
<stop offset="1" stop-color="#F1AE39"/>
</linearGradient>
<linearGradient id="paint29_linear_371_738" x1="108.749" y1="68.5806" x2="118.241" y2="68.5806" gradientUnits="userSpaceOnUse">
<stop stop-color="#F1AE39"/>
<stop offset="0.11" stop-color="#C47C2A"/>
<stop offset="0.22" stop-color="#F4AE35"/>
<stop offset="0.33" stop-color="#F3B437"/>
<stop offset="0.48" stop-color="#FDD649"/>
<stop offset="0.59" stop-color="#F3B437"/>
<stop offset="0.69" stop-color="#F4AE35"/>
<stop offset="0.87" stop-color="#C47C2A"/>
<stop offset="1" stop-color="#F1AE39"/>
</linearGradient>
<linearGradient id="paint30_linear_371_738" x1="118.242" y1="33.7236" x2="124.49" y2="33.7236" gradientUnits="userSpaceOnUse">
<stop stop-color="#F1AE39"/>
<stop offset="0.11" stop-color="#C47C2A"/>
<stop offset="0.22" stop-color="#F4AE35"/>
<stop offset="0.33" stop-color="#F3B437"/>
<stop offset="0.48" stop-color="#FDD649"/>
<stop offset="0.59" stop-color="#F3B437"/>
<stop offset="0.69" stop-color="#F4AE35"/>
<stop offset="0.87" stop-color="#C47C2A"/>
<stop offset="1" stop-color="#F1AE39"/>
</linearGradient>
<linearGradient id="paint31_linear_371_738" x1="119.272" y1="46.4791" x2="126.252" y2="46.4791" gradientUnits="userSpaceOnUse">
<stop stop-color="#F1AE39"/>
<stop offset="0.11" stop-color="#C47C2A"/>
<stop offset="0.22" stop-color="#F4AE35"/>
<stop offset="0.33" stop-color="#F3B437"/>
<stop offset="0.48" stop-color="#FDD649"/>
<stop offset="0.59" stop-color="#F3B437"/>
<stop offset="0.69" stop-color="#F4AE35"/>
<stop offset="0.87" stop-color="#C47C2A"/>
<stop offset="1" stop-color="#F1AE39"/>
</linearGradient>
<linearGradient id="paint32_linear_371_738" x1="118.926" y1="40.916" x2="126.324" y2="40.916" gradientUnits="userSpaceOnUse">
<stop stop-color="#F1AE39"/>
<stop offset="0.11" stop-color="#C47C2A"/>
<stop offset="0.22" stop-color="#F4AE35"/>
<stop offset="0.33" stop-color="#F3B437"/>
<stop offset="0.48" stop-color="#FDD649"/>
<stop offset="0.59" stop-color="#F3B437"/>
<stop offset="0.69" stop-color="#F4AE35"/>
<stop offset="0.87" stop-color="#C47C2A"/>
<stop offset="1" stop-color="#F1AE39"/>
</linearGradient>
<linearGradient id="paint33_linear_371_738" x1="110.665" y1="47.4921" x2="117.393" y2="47.4921" gradientUnits="userSpaceOnUse">
<stop stop-color="#CA9156"/>
<stop offset="0.18" stop-color="#E8BC6A"/>
<stop offset="0.31" stop-color="#EDD07A"/>
<stop offset="0.33" stop-color="#EED57C"/>
<stop offset="0.42" stop-color="#F1E282"/>
<stop offset="0.49" stop-color="#F2E784"/>
<stop offset="0.59" stop-color="#EED87D"/>
<stop offset="0.69" stop-color="#ECCD78"/>
<stop offset="0.78" stop-color="#E9C06D"/>
<stop offset="0.86" stop-color="#E8BC6A"/>
<stop offset="1" stop-color="#CA9156"/>
</linearGradient>
<linearGradient id="paint34_linear_371_738" x1="113.705" y1="38.1282" x2="118.552" y2="38.1282" gradientUnits="userSpaceOnUse">
<stop stop-color="#F1AE39"/>
<stop offset="0.11" stop-color="#C47C2A"/>
<stop offset="0.22" stop-color="#F4AE35"/>
<stop offset="0.33" stop-color="#F3B437"/>
<stop offset="0.48" stop-color="#FDD649"/>
<stop offset="0.59" stop-color="#F3B437"/>
<stop offset="0.69" stop-color="#F4AE35"/>
<stop offset="0.87" stop-color="#C47C2A"/>
<stop offset="1" stop-color="#F1AE39"/>
</linearGradient>
<linearGradient id="paint35_linear_371_738" x1="110.597" y1="32.9072" x2="114.576" y2="32.9072" gradientUnits="userSpaceOnUse">
<stop stop-color="#F1AE39"/>
<stop offset="0.11" stop-color="#C47C2A"/>
<stop offset="0.22" stop-color="#F4AE35"/>
<stop offset="0.33" stop-color="#F3B437"/>
<stop offset="0.48" stop-color="#FDD649"/>
<stop offset="0.59" stop-color="#F3B437"/>
<stop offset="0.69" stop-color="#F4AE35"/>
<stop offset="0.87" stop-color="#C47C2A"/>
<stop offset="1" stop-color="#F1AE39"/>
</linearGradient>
<linearGradient id="paint36_linear_371_738" x1="106.508" y1="57.9683" x2="114.703" y2="57.9683" gradientUnits="userSpaceOnUse">
<stop stop-color="#CA9156"/>
<stop offset="0.18" stop-color="#E8BC6A"/>
<stop offset="0.31" stop-color="#EDD07A"/>
<stop offset="0.33" stop-color="#EED57C"/>
<stop offset="0.42" stop-color="#F1E282"/>
<stop offset="0.49" stop-color="#F2E784"/>
<stop offset="0.59" stop-color="#EED87D"/>
<stop offset="0.69" stop-color="#ECCD78"/>
<stop offset="0.78" stop-color="#E9C06D"/>
<stop offset="0.86" stop-color="#E8BC6A"/>
<stop offset="1" stop-color="#CA9156"/>
</linearGradient>
<linearGradient id="paint37_linear_371_738" x1="107.734" y1="64.8839" x2="110.909" y2="64.8839" gradientUnits="userSpaceOnUse">
<stop stop-color="#CA9156"/>
<stop offset="0.18" stop-color="#E8BC6A"/>
<stop offset="0.31" stop-color="#EDD07A"/>
<stop offset="0.33" stop-color="#EED57C"/>
<stop offset="0.42" stop-color="#F1E282"/>
<stop offset="0.49" stop-color="#F2E784"/>
<stop offset="0.59" stop-color="#EED87D"/>
<stop offset="0.69" stop-color="#ECCD78"/>
<stop offset="0.78" stop-color="#E9C06D"/>
<stop offset="0.86" stop-color="#E8BC6A"/>
<stop offset="1" stop-color="#CA9156"/>
</linearGradient>
<linearGradient id="paint38_linear_371_738" x1="119.988" y1="55.7171" x2="122.555" y2="55.7171" gradientUnits="userSpaceOnUse">
<stop stop-color="#CA9156"/>
<stop offset="0.18" stop-color="#E8BC6A"/>
<stop offset="0.31" stop-color="#EDD07A"/>
<stop offset="0.33" stop-color="#EED57C"/>
<stop offset="0.42" stop-color="#F1E282"/>
<stop offset="0.49" stop-color="#F2E784"/>
<stop offset="0.59" stop-color="#EED87D"/>
<stop offset="0.69" stop-color="#ECCD78"/>
<stop offset="0.78" stop-color="#E9C06D"/>
<stop offset="0.86" stop-color="#E8BC6A"/>
<stop offset="1" stop-color="#CA9156"/>
</linearGradient>
<linearGradient id="paint39_linear_371_738" x1="102.6" y1="48.768" x2="108.504" y2="48.768" gradientUnits="userSpaceOnUse">
<stop stop-color="#CA9156"/>
<stop offset="0.18" stop-color="#E8BC6A"/>
<stop offset="0.31" stop-color="#EDD07A"/>
<stop offset="0.33" stop-color="#EED57C"/>
<stop offset="0.42" stop-color="#F1E282"/>
<stop offset="0.49" stop-color="#F2E784"/>
<stop offset="0.59" stop-color="#EED87D"/>
<stop offset="0.69" stop-color="#ECCD78"/>
<stop offset="0.78" stop-color="#E9C06D"/>
<stop offset="0.86" stop-color="#E8BC6A"/>
<stop offset="1" stop-color="#CA9156"/>
</linearGradient>
<linearGradient id="paint40_linear_371_738" x1="114.135" y1="55.2058" x2="119.791" y2="55.2058" gradientUnits="userSpaceOnUse">
<stop stop-color="#CA9156"/>
<stop offset="0.18" stop-color="#E8BC6A"/>
<stop offset="0.31" stop-color="#EDD07A"/>
<stop offset="0.33" stop-color="#EED57C"/>
<stop offset="0.42" stop-color="#F1E282"/>
<stop offset="0.49" stop-color="#F2E784"/>
<stop offset="0.59" stop-color="#EED87D"/>
<stop offset="0.69" stop-color="#ECCD78"/>
<stop offset="0.78" stop-color="#E9C06D"/>
<stop offset="0.86" stop-color="#E8BC6A"/>
<stop offset="1" stop-color="#CA9156"/>
</linearGradient>
<linearGradient id="paint41_linear_371_738" x1="114.18" y1="60.5082" x2="116.723" y2="60.5082" gradientUnits="userSpaceOnUse">
<stop stop-color="#CA9156"/>
<stop offset="0.18" stop-color="#E8BC6A"/>
<stop offset="0.31" stop-color="#EDD07A"/>
<stop offset="0.33" stop-color="#EED57C"/>
<stop offset="0.42" stop-color="#F1E282"/>
<stop offset="0.49" stop-color="#F2E784"/>
<stop offset="0.59" stop-color="#EED87D"/>
<stop offset="0.69" stop-color="#ECCD78"/>
<stop offset="0.78" stop-color="#E9C06D"/>
<stop offset="0.86" stop-color="#E8BC6A"/>
<stop offset="1" stop-color="#CA9156"/>
</linearGradient>
<linearGradient id="paint42_linear_371_738" x1="106.634" y1="54.6399" x2="111.388" y2="54.6399" gradientUnits="userSpaceOnUse">
<stop stop-color="#CA9156"/>
<stop offset="0.18" stop-color="#E8BC6A"/>
<stop offset="0.31" stop-color="#EDD07A"/>
<stop offset="0.33" stop-color="#EED57C"/>
<stop offset="0.42" stop-color="#F1E282"/>
<stop offset="0.49" stop-color="#F2E784"/>
<stop offset="0.59" stop-color="#EED87D"/>
<stop offset="0.69" stop-color="#ECCD78"/>
<stop offset="0.78" stop-color="#E9C06D"/>
<stop offset="0.86" stop-color="#E8BC6A"/>
<stop offset="1" stop-color="#CA9156"/>
</linearGradient>
<linearGradient id="paint43_linear_371_738" x1="111.967" y1="55.6701" x2="113.456" y2="55.6701" gradientUnits="userSpaceOnUse">
<stop stop-color="#CA9156"/>
<stop offset="0.18" stop-color="#E8BC6A"/>
<stop offset="0.31" stop-color="#EDD07A"/>
<stop offset="0.33" stop-color="#EED57C"/>
<stop offset="0.42" stop-color="#F1E282"/>
<stop offset="0.49" stop-color="#F2E784"/>
<stop offset="0.59" stop-color="#EED87D"/>
<stop offset="0.69" stop-color="#ECCD78"/>
<stop offset="0.78" stop-color="#E9C06D"/>
<stop offset="0.86" stop-color="#E8BC6A"/>
<stop offset="1" stop-color="#CA9156"/>
</linearGradient>
<linearGradient id="paint44_linear_371_738" x1="69.744" y1="135.735" x2="92.6974" y2="132.075" gradientUnits="userSpaceOnUse">
<stop stop-color="#F1AE39"/>
<stop offset="0.11" stop-color="#C47C2A"/>
<stop offset="0.22" stop-color="#F4AE35"/>
<stop offset="0.33" stop-color="#F3B437"/>
<stop offset="0.48" stop-color="#FDD649"/>
<stop offset="0.59" stop-color="#F3B437"/>
<stop offset="0.69" stop-color="#F4AE35"/>
<stop offset="0.87" stop-color="#C47C2A"/>
<stop offset="1" stop-color="#F1AE39"/>
</linearGradient>
<linearGradient id="paint45_linear_371_738" x1="86.9396" y1="125.214" x2="111.367" y2="121.32" gradientUnits="userSpaceOnUse">
<stop stop-color="#F1AE39"/>
<stop offset="0.11" stop-color="#C47C2A"/>
<stop offset="0.22" stop-color="#F4AE35"/>
<stop offset="0.33" stop-color="#F3B437"/>
<stop offset="0.48" stop-color="#FDD649"/>
<stop offset="0.59" stop-color="#F3B437"/>
<stop offset="0.69" stop-color="#F4AE35"/>
<stop offset="0.87" stop-color="#C47C2A"/>
<stop offset="1" stop-color="#F1AE39"/>
</linearGradient>
<linearGradient id="paint46_linear_371_738" x1="69.7359" y1="142.162" x2="100.935" y2="137.189" gradientUnits="userSpaceOnUse">
<stop stop-color="#F1AE39"/>
<stop offset="0.11" stop-color="#C47C2A"/>
<stop offset="0.22" stop-color="#F4AE35"/>
<stop offset="0.33" stop-color="#F3B437"/>
<stop offset="0.48" stop-color="#FDD649"/>
<stop offset="0.59" stop-color="#F3B437"/>
<stop offset="0.69" stop-color="#F4AE35"/>
<stop offset="0.87" stop-color="#C47C2A"/>
<stop offset="1" stop-color="#F1AE39"/>
</linearGradient>
<linearGradient id="paint47_linear_371_738" x1="94.9603" y1="130.565" x2="102.34" y2="129.388" gradientUnits="userSpaceOnUse">
<stop stop-color="#F1AE39"/>
<stop offset="0.11" stop-color="#C47C2A"/>
<stop offset="0.22" stop-color="#F4AE35"/>
<stop offset="0.33" stop-color="#F3B437"/>
<stop offset="0.48" stop-color="#FDD649"/>
<stop offset="0.59" stop-color="#F3B437"/>
<stop offset="0.69" stop-color="#F4AE35"/>
<stop offset="0.87" stop-color="#C47C2A"/>
<stop offset="1" stop-color="#F1AE39"/>
</linearGradient>
<linearGradient id="paint48_linear_371_738" x1="91.3823" y1="130.796" x2="96.0968" y2="130.045" gradientUnits="userSpaceOnUse">
<stop stop-color="#F1AE39"/>
<stop offset="0.11" stop-color="#C47C2A"/>
<stop offset="0.22" stop-color="#F4AE35"/>
<stop offset="0.33" stop-color="#F3B437"/>
<stop offset="0.48" stop-color="#FDD649"/>
<stop offset="0.59" stop-color="#F3B437"/>
<stop offset="0.69" stop-color="#F4AE35"/>
<stop offset="0.87" stop-color="#C47C2A"/>
<stop offset="1" stop-color="#F1AE39"/>
</linearGradient>
<linearGradient id="paint49_linear_371_738" x1="76.7502" y1="143.125" x2="89.0101" y2="141.171" gradientUnits="userSpaceOnUse">
<stop stop-color="#F1AE39"/>
<stop offset="0.11" stop-color="#C47C2A"/>
<stop offset="0.22" stop-color="#F4AE35"/>
<stop offset="0.33" stop-color="#F3B437"/>
<stop offset="0.48" stop-color="#FDD649"/>
<stop offset="0.59" stop-color="#F3B437"/>
<stop offset="0.69" stop-color="#F4AE35"/>
<stop offset="0.87" stop-color="#C47C2A"/>
<stop offset="1" stop-color="#F1AE39"/>
</linearGradient>
<linearGradient id="paint50_linear_371_738" x1="18.2532" y1="125.79" x2="71.3459" y2="117.326" gradientUnits="userSpaceOnUse">
<stop stop-color="#CA9156"/>
<stop offset="0.18" stop-color="#E8BC6A"/>
<stop offset="0.31" stop-color="#EDD07A"/>
<stop offset="0.33" stop-color="#EED57C"/>
<stop offset="0.42" stop-color="#F1E282"/>
<stop offset="0.49" stop-color="#F2E784"/>
<stop offset="0.59" stop-color="#EED87D"/>
<stop offset="0.69" stop-color="#ECCD78"/>
<stop offset="0.78" stop-color="#E9C06D"/>
<stop offset="0.86" stop-color="#E8BC6A"/>
<stop offset="1" stop-color="#CA9156"/>
</linearGradient>
<linearGradient id="paint51_linear_371_738" x1="12.0725" y1="126.918" x2="67.7074" y2="118.049" gradientUnits="userSpaceOnUse">
<stop stop-color="#757B2F"/>
<stop offset="0.33" stop-color="#F7F195"/>
<stop offset="0.87" stop-color="#928D34"/>
<stop offset="0.99" stop-color="#6B742C"/>
</linearGradient>
</defs>
</svg>
