<svg width="472" height="258" viewBox="0 0 472 258" fill="none" xmlns="http://www.w3.org/2000/svg">
<circle cx="314.5" cy="53.5" r="6.5" fill="#DFB468"/>
<path d="M113.806 118.006C113.647 117.51 113.499 117.074 113.251 116.687C112.913 116.082 112.646 115.933 111.644 115.933H109.729C109.214 115.933 109.154 115.983 109.154 116.509V120.634H111.366C112.655 120.634 112.745 120.416 113.013 119.166H113.548V122.895H112.993C112.765 121.646 112.636 121.358 111.366 121.358H109.164V124.552C109.164 126.109 109.343 126.178 110.969 126.317V126.813H106V126.317C107.448 126.208 107.607 126.089 107.607 124.552V117.48C107.607 115.923 107.428 115.854 106 115.715V115.219H111.664C113.27 115.219 113.875 115.2 114.183 115.18C114.203 115.824 114.272 117.074 114.362 117.927L113.806 117.996V118.006Z" fill="#081B15"/>
<path d="M131.056 114.973C134.111 114.973 136.839 117.313 136.839 120.864C136.839 124.701 134.23 127.092 130.947 127.092C127.664 127.092 125.016 124.483 125.016 121.131C125.016 117.779 127.287 114.973 131.056 114.973ZM130.699 115.637C128.695 115.637 126.88 117.313 126.88 120.655C126.88 123.997 128.705 126.427 131.235 126.427C133.397 126.427 135.024 124.821 135.024 121.369C135.024 117.621 133.04 115.637 130.699 115.637Z" fill="#081B15"/>
<path d="M153.779 114.973C156.834 114.973 159.561 117.313 159.561 120.864C159.561 124.701 156.953 127.092 153.67 127.092C150.387 127.092 147.738 124.483 147.738 121.131C147.738 117.779 150.01 114.973 153.779 114.973ZM153.422 115.637C151.418 115.637 149.603 117.313 149.603 120.655C149.603 123.997 151.428 126.427 153.957 126.427C156.12 126.427 157.746 124.821 157.746 121.369C157.746 117.621 155.763 115.637 153.422 115.637Z" fill="#081B15"/>
<path d="M175.184 115.219C177.703 115.219 179.29 115.715 180.401 116.776C181.274 117.629 181.919 118.878 181.919 120.594C181.919 122.686 181.066 124.382 179.687 125.414C178.328 126.435 176.592 126.822 174.4 126.822H170.225V126.326C171.762 126.187 171.831 126.058 171.831 124.591V117.47C171.831 115.933 171.613 115.863 170.225 115.725V115.229H175.184V115.219ZM173.379 124.452C173.379 125.791 173.954 126.167 175.293 126.167C178.507 126.167 180.153 123.976 180.153 120.842C180.153 118.898 179.489 117.41 178.08 116.558C177.257 116.042 176.225 115.844 175.025 115.844C174.222 115.844 173.795 115.953 173.617 116.091C173.458 116.201 173.389 116.399 173.389 117.093V124.452H173.379Z" fill="#081B15"/>
<path d="M204.533 119.731C203.283 119.87 203.065 120.198 202.48 121.07C202.014 121.745 201.528 122.459 200.893 123.431C201.657 124.164 203.412 126.088 203.928 126.961L203.819 127.159C202.837 127.07 201.835 126.664 201.627 126.426C201.409 126.178 200.556 125.355 199.98 124.75C198.681 126.485 197.501 127.07 196.211 127.07C193.91 127.07 192.641 125.394 192.641 123.837C192.66 122.181 193.603 121.517 195.319 120.426C194.466 119.692 193.93 118.869 193.93 117.887C193.95 116.28 195.289 115.07 196.896 115.07C198.374 115.07 199.554 116.092 199.554 117.54C199.534 118.274 199.177 118.809 198.79 119.126C198.453 119.394 197.917 119.731 197.253 120.128C197.838 120.624 199.306 121.844 200.447 122.964C200.853 122.32 201.21 121.735 201.558 120.931C201.895 120.108 201.756 119.88 200.447 119.731V119.216H204.533V119.731ZM196.638 125.84C197.868 125.84 198.562 125.444 199.514 124.254C198.582 123.222 197.332 122.161 195.795 120.862C194.525 121.705 194.168 122.469 194.168 123.381C194.168 125.057 195.467 125.84 196.638 125.84ZM196.687 115.695C195.795 115.695 195.239 116.389 195.239 117.441C195.239 118.353 195.706 118.908 196.777 119.761C197.779 119.047 198.205 118.472 198.205 117.569C198.185 116.538 197.669 115.695 196.687 115.695Z" fill="#081B15"/>
<path d="M220.729 120.533C222.445 120.82 223.834 121.643 223.834 123.369C223.834 124.579 223.159 125.551 222.098 126.116C221.166 126.632 220.263 126.81 219.003 126.81H214.609V126.314C216.127 126.176 216.216 126.007 216.216 124.599V117.438C216.216 115.961 216.058 115.832 214.609 115.703V115.207H219.291C220.63 115.207 221.473 115.435 222.039 115.832C222.663 116.258 223.09 116.923 223.09 117.835C223.09 119.511 221.711 120.285 220.709 120.533H220.729ZM218.676 120.314C220.64 120.314 221.443 119.531 221.443 118.063C221.443 116.814 220.68 115.852 218.964 115.852C218.468 115.852 218.14 115.901 217.962 116.03C217.823 116.139 217.764 116.338 217.764 116.903V120.314H218.676ZM217.764 124.569C217.764 125.858 218.071 126.176 219.331 126.176C220.719 126.176 222.078 125.422 222.078 123.547C222.078 121.673 220.789 120.939 218.617 120.939H217.764V124.569Z" fill="#081B15"/>
<path d="M243.493 123.988C243.384 124.454 242.908 126.289 242.73 126.824H234.051V126.328C235.707 126.2 235.836 126.041 235.836 124.583V117.532C235.836 115.945 235.638 115.856 234.299 115.727V115.231H239.764C241.44 115.231 242.144 115.211 242.353 115.191C242.373 115.638 242.442 116.977 242.511 117.919L241.976 118.008C241.817 117.403 241.639 117.026 241.44 116.649C241.153 116.064 240.746 115.935 239.675 115.935H237.979C237.423 115.935 237.393 115.985 237.393 116.51V120.457H239.377C240.716 120.457 240.805 120.19 241.024 118.97H241.579V122.649H241.024C240.796 121.36 240.647 121.181 239.367 121.181H237.403V124.732C237.403 125.981 237.8 126.09 238.693 126.11H240.349C241.44 126.11 241.619 125.952 242.006 125.486C242.343 125.109 242.72 124.375 242.968 123.839L243.503 123.978L243.493 123.988Z" fill="#081B15"/>
<path d="M264.581 115.713C263.38 115.871 263.083 116.03 262.438 117.637C261.952 118.817 259.492 124.797 258.619 127.009H258.034C256.983 124.133 255.445 119.957 254.424 117.309C253.928 115.99 253.62 115.812 252.529 115.703V115.207H257.062V115.703C255.743 115.842 255.674 116.06 255.922 116.724C256.368 118.024 257.667 121.584 258.798 124.549C259.74 122.248 260.921 119.333 261.764 117.081C262.16 116.05 261.942 115.881 260.474 115.703V115.207H264.581V115.703V115.713Z" fill="#081B15"/>
<path d="M283.466 123.988C283.357 124.454 282.881 126.289 282.702 126.824H274.023V126.328C275.68 126.2 275.809 126.041 275.809 124.583V117.532C275.809 115.945 275.61 115.856 274.271 115.727V115.231H279.737C281.413 115.231 282.107 115.211 282.325 115.191C282.345 115.638 282.415 116.977 282.484 117.919L281.949 118.008C281.79 117.403 281.611 117.026 281.413 116.649C281.125 116.064 280.719 115.935 279.647 115.935H277.951C277.396 115.935 277.366 115.985 277.366 116.51V120.457H279.35C280.689 120.457 280.778 120.19 280.996 118.97H281.552V122.649H280.996C280.768 121.36 280.619 121.181 279.34 121.181H277.376V124.732C277.376 125.981 277.773 126.09 278.665 126.11H280.322C281.413 126.11 281.591 125.952 281.978 125.486C282.316 125.109 282.692 124.375 282.94 123.839L283.476 123.978L283.466 123.988Z" fill="#081B15"/>
<path d="M304.226 126.961C303.998 126.961 303.8 126.941 303.561 126.921C302.262 126.832 301.558 126.495 300.774 125.384C300.11 124.472 299.475 123.351 298.9 122.439C298.543 121.863 298.314 121.764 297.402 121.764H296.777V124.571C296.777 126.088 296.975 126.177 298.404 126.316V126.812H293.633V126.316C295.111 126.157 295.24 126.088 295.24 124.571V117.45C295.24 115.933 295.041 115.883 293.633 115.715V115.219H298.186C299.485 115.219 300.368 115.377 301.042 115.824C301.776 116.29 302.252 117.093 302.252 118.184C302.252 119.721 301.27 120.683 299.951 121.258C300.268 121.814 301.042 123.004 301.578 123.817C302.242 124.759 302.58 125.205 302.986 125.652C303.472 126.167 303.879 126.366 304.286 126.475L304.216 126.971L304.226 126.961ZM297.64 121.159C298.572 121.159 299.158 121.02 299.604 120.643C300.298 120.128 300.586 119.414 300.586 118.452C300.586 116.538 299.316 115.844 297.938 115.844C297.422 115.844 297.114 115.913 296.995 116.022C296.837 116.151 296.777 116.329 296.777 116.786V121.159H297.63H297.64Z" fill="#081B15"/>
<path d="M320.799 126.824V126.328C321.96 126.189 322.099 126.011 321.851 125.326C321.623 124.632 321.266 123.74 320.889 122.609H317.03C316.743 123.412 316.475 124.106 316.227 124.84C315.83 126.001 316.088 126.139 317.546 126.328V126.824H313.42V126.328C314.541 126.189 314.828 126.06 315.453 124.454L319.153 115.082L319.728 114.973C320.849 118.027 322.089 121.399 323.21 124.493C323.785 126.05 323.944 126.189 325.213 126.328V126.824H320.799ZM319.014 117.303C318.439 118.84 317.834 120.467 317.298 121.875H320.641L319.014 117.303Z" fill="#081B15"/>
<path d="M346.4 121.953C345.29 122.091 345.22 122.201 345.22 123.252V124.749C345.22 125.374 345.24 125.959 345.329 126.445C344.218 126.693 342.78 127.09 341.272 127.09C337.216 127.09 334.756 124.571 334.756 120.981C334.756 117.212 337.831 114.961 341.401 114.961C343.226 114.961 344.565 115.318 345.121 115.407C345.161 116.072 345.25 117.153 345.389 118.283L344.853 118.392C344.427 116.875 343.911 116.23 342.78 115.853C342.373 115.715 341.639 115.625 341.124 115.625C338.396 115.625 336.621 117.5 336.621 120.772C336.621 123.609 338.089 126.435 341.55 126.435C342.155 126.435 342.711 126.306 343.068 126.128C343.445 125.91 343.673 125.721 343.673 124.987V123.52C343.673 122.22 343.534 122.072 341.818 121.953V121.437H346.41V121.953H346.4Z" fill="#081B15"/>
<path d="M365.99 123.988C365.88 124.454 365.404 126.289 365.226 126.824H356.547V126.328C358.203 126.2 358.332 126.041 358.332 124.583V117.532C358.332 115.945 358.134 115.856 356.795 115.727V115.231H362.26C363.936 115.231 364.631 115.211 364.849 115.191C364.869 115.638 364.938 116.977 365.008 117.919L364.472 118.008C364.313 117.403 364.135 117.026 363.936 116.649C363.649 116.064 363.242 115.935 362.171 115.935H360.475C359.919 115.935 359.889 115.985 359.889 116.51V120.457H361.873C363.212 120.457 363.302 120.19 363.52 118.97H364.075V122.649H363.52C363.292 121.36 363.143 121.181 361.863 121.181H359.899V124.732C359.899 125.981 360.296 126.09 361.189 126.11H362.845C363.936 126.11 364.115 125.952 364.502 125.486C364.839 125.109 365.216 124.375 365.464 123.839L365.999 123.978L365.99 123.988Z" fill="#081B15"/>
<path d="M322 63V63.7087H318.752V98.2913H322V99H307V98.2913H310.248V63.7087H307V63H322Z" fill="#081B15"/>
<path d="M274.403 48V48.9829H270.424V97.0269H282.3C283.881 97.0269 285.483 96.7714 287.084 96.2504C288.696 95.7393 290.207 94.8842 291.617 93.6851C293.027 92.4958 294.306 90.9428 295.434 89.0458C296.562 87.1488 297.439 84.839 298.063 82.1262H299V98H256V97.0171H259.979V48.9829H256V48H274.403Z" fill="#081B15"/>
<path d="M156.003 47.0099L168.574 83.3685H168.721L181.507 47.0099H197V48.0349H192.98V97.975H197V99H178.507V97.975H182.448V48.025H182.301L164.436 98.9901H163.279L145.324 48.025H145.177V97.9651H149.198V98.9901H140V97.9651H144.02V48.025H140V47H156.003V47.0099Z" fill="#081B15"/>
<path d="M247.421 97.4493L225.918 47.8828H224.073L211.268 79.152H228.784L236.709 97.4493H232.861V98.4014H250.794V97.4493H247.421ZM212.736 78.1999L220.383 59.5654L228.437 78.1999H212.736Z" fill="#081B15"/>
<path d="M211.426 87.3716C211.426 87.3716 211.386 87.3518 211.366 87.3518C211.019 87.2427 210.652 87.1634 210.275 87.1138C208.877 86.8857 209.333 85.5568 210.454 84.5551C210.692 84.337 210.474 83.9601 210.166 84.0593C208.341 84.6841 205.038 87.1336 203.749 91.289C203.739 91.3286 203.719 91.3683 203.709 91.408C203.679 91.5071 203.65 91.6063 203.62 91.7055V91.7253C203.511 92.1914 203.441 92.6675 203.441 93.1633C203.441 96.5352 206.149 99.2724 209.492 99.2724C212.834 99.2724 215.542 96.5352 215.542 93.1633C215.542 90.4658 213.806 88.1749 211.406 87.3716H211.426Z" fill="#081B15"/>
<path d="M41.8281 189.562H35.5781L27.1406 208.664L18.0781 189.562H12.4922V190.578H15.6172V211.984H12.4922V213H20.3047C20.3047 212.427 20.0964 212.102 19.6797 212.023C19.5495 211.997 19.4193 211.984 19.2891 211.984H17.1797V195.188L25.7344 213.195H26.5547L35.5781 193.078V211.984H32.4531V213H41.8281C41.8281 212.427 41.6198 212.102 41.2031 212.023C41.0729 211.997 40.9427 211.984 40.8125 211.984H38.7031V190.578H41.8281V189.562ZM68.9453 213C68.9453 212.427 68.737 212.102 68.3203 212.023C68.1901 211.997 68.0599 211.984 67.9297 211.984H66.6016L57.6562 189.562H56.2109L47.4609 211.984H45V213H51.9531C51.9531 212.427 51.7448 212.102 51.3281 212.023C51.1979 211.997 51.0677 211.984 50.9375 211.984H49.0234L51.9531 204.406H60.1172L63.0469 211.984H60.5078V213H68.9453ZM59.6875 203.273H52.3828L56.0156 193.82L59.6875 203.273ZM89.6172 213L89.8125 205.188H89.0312L88.3672 207.805C87.7422 210.201 86.7005 211.568 85.2422 211.906C84.9297 211.958 84.6302 211.984 84.3438 211.984H78.9922V190.578H82.2734V189.562H72.5078V190.578H75.6328V211.984H72.5078V213H89.6172ZM103.336 213C103.336 212.427 103.128 212.102 102.711 212.023C102.581 211.997 102.451 211.984 102.32 211.984H100.25V190.578H103.336V189.562H93.7656V190.578H96.8906V211.984H93.7656V213H103.336ZM129.25 213V211.984H124.562V201.477H132.609V200.344H124.562V190.578H130.812C132.688 190.578 134.029 191.841 134.836 194.367C134.888 194.523 134.927 194.654 134.953 194.758L135.5 196.594H136.281L136.086 189.562H118.078V190.578H121.203V211.984H118.078V213H129.25ZM152.539 189.172C149.414 189.172 146.732 190.201 144.492 192.258C142.044 194.523 140.82 197.479 140.82 201.125C140.82 205.344 142.266 208.599 145.156 210.891C147.266 212.557 149.688 213.391 152.422 213.391C155.495 213.391 158.138 212.349 160.352 210.266C162.826 207.948 164.062 204.953 164.062 201.281C164.062 196.984 162.565 193.716 159.57 191.477C157.539 189.94 155.195 189.172 152.539 189.172ZM152.539 212.297C148.763 212.297 146.341 210.279 145.273 206.242C144.909 204.81 144.727 203.156 144.727 201.281C144.727 195.083 146.602 191.49 150.352 190.5C151.003 190.344 151.693 190.266 152.422 190.266C157.552 190.318 160.13 193.938 160.156 201.125C160.156 206.802 158.581 210.331 155.43 211.711C154.544 212.102 153.581 212.297 152.539 212.297ZM182.078 189.172C178.953 189.172 176.271 190.201 174.031 192.258C171.583 194.523 170.359 197.479 170.359 201.125C170.359 205.344 171.805 208.599 174.695 210.891C176.805 212.557 179.227 213.391 181.961 213.391C185.034 213.391 187.677 212.349 189.891 210.266C192.365 207.948 193.602 204.953 193.602 201.281C193.602 196.984 192.104 193.716 189.109 191.477C187.078 189.94 184.734 189.172 182.078 189.172ZM182.078 212.297C178.302 212.297 175.88 210.279 174.812 206.242C174.448 204.81 174.266 203.156 174.266 201.281C174.266 195.083 176.141 191.49 179.891 190.5C180.542 190.344 181.232 190.266 181.961 190.266C187.091 190.318 189.669 193.938 189.695 201.125C189.695 206.802 188.12 210.331 184.969 211.711C184.083 212.102 183.12 212.297 182.078 212.297ZM199.312 189.562V190.578H202.438V211.984H199.312V213H210.094C213.609 213 216.5 211.906 218.766 209.719C221.005 207.557 222.125 204.745 222.125 201.281C222.125 196.802 220.484 193.521 217.203 191.438C215.198 190.188 212.867 189.562 210.211 189.562H199.312ZM210.094 190.578C214.208 190.578 216.773 192.453 217.789 196.203C218.18 197.583 218.375 199.224 218.375 201.125C218.375 207.609 216.161 211.19 211.734 211.867C211.24 211.945 210.732 211.984 210.211 211.984H205.797V190.578H210.094ZM244.719 193.312C244.719 191.724 245.357 190.721 246.633 190.305C246.945 190.201 247.271 190.148 247.609 190.148C248.99 190.148 249.888 190.734 250.305 191.906C250.435 192.297 250.5 192.688 250.5 193.078C250.5 194.302 249.862 195.396 248.586 196.359C247.857 196.906 247.01 197.31 246.047 197.57C245.161 195.799 244.719 194.38 244.719 193.312ZM246.398 212.219C243.482 212.219 241.646 210.76 240.891 207.844C240.682 207.01 240.578 206.099 240.578 205.109C240.578 202.818 241.307 201.151 242.766 200.109C243.156 199.849 243.547 199.654 243.938 199.523C245.682 202.805 248.221 206.411 251.555 210.344C250.044 211.594 248.326 212.219 246.398 212.219ZM256.438 200.539H256.398H256.516L257.727 200.5C258.326 200.5 258.664 200.344 258.742 200.031C258.794 199.849 258.82 199.654 258.82 199.445H253.195V200.461H255.344C255.344 203.352 254.719 205.878 253.469 208.039C250.37 204.393 248.052 201.19 246.516 198.43C248.677 197.831 250.201 196.698 251.086 195.031C251.424 194.38 251.594 193.729 251.594 193.078C251.594 191.385 250.852 190.214 249.367 189.562C248.794 189.302 248.182 189.172 247.531 189.172C245.083 189.172 243.443 190.018 242.609 191.711C242.271 192.414 242.102 193.169 242.102 193.977C242.128 195.174 242.596 196.737 243.508 198.664C240.461 199.497 238.508 201.151 237.648 203.625C237.388 204.406 237.258 205.24 237.258 206.125C237.258 208.495 238.156 210.37 239.953 211.75C241.385 212.844 243.117 213.391 245.148 213.391C248.013 213.365 250.357 212.596 252.18 211.086C252.57 211.555 253.143 212.193 253.898 213H259.406C259.406 212.401 259.198 212.076 258.781 212.023C258.677 211.997 258.56 211.984 258.43 211.984H256.984C256.359 211.307 255.435 210.279 254.211 208.898C255.695 206.607 256.438 203.82 256.438 200.539ZM290.398 194.875C290.398 192.896 289.461 191.424 287.586 190.461C286.362 189.862 284.891 189.562 283.172 189.562H272.195V190.578H275.32V211.984H272.195V213H283.289C286.648 213 289.109 211.932 290.672 209.797C291.479 208.677 291.883 207.453 291.883 206.125C291.883 204.042 290.958 202.427 289.109 201.281C288.25 200.786 287.26 200.435 286.141 200.227C288.016 199.523 289.305 198.339 290.008 196.672C290.268 196.047 290.398 195.448 290.398 194.875ZM282.234 190.578C284.917 190.578 286.44 191.763 286.805 194.133C286.857 194.471 286.883 194.823 286.883 195.188C286.883 196.88 286.219 198.156 284.891 199.016C284.109 199.51 283.198 199.758 282.156 199.758H278.68V190.578H282.234ZM282.898 200.812C285.268 200.812 286.857 201.815 287.664 203.82C287.977 204.549 288.133 205.344 288.133 206.203C288.133 208.208 287.482 209.771 286.18 210.891C285.32 211.62 284.292 211.984 283.094 211.984H278.68V200.812H282.898ZM315.406 196.594L315.211 189.562H297.203V190.578H300.328V211.984H297.203V213H315.211L315.406 205.969H314.625L314.078 207.805C313.427 210.018 312.464 211.346 311.188 211.789C310.797 211.919 310.38 211.984 309.938 211.984H303.688V201.477H311.734V200.344H303.688V190.578H309.938C311.812 190.578 313.154 191.841 313.961 194.367C314.013 194.523 314.052 194.654 314.078 194.758L314.625 196.594H315.406ZM331.898 213.195L339.945 190.578H341.898V189.562H335.336V190.578H338.461L331.938 209.016L324.867 190.578H327.992V189.562H319.164V190.578H321.508L328.93 210.305C329.503 211.841 329.997 212.727 330.414 212.961C330.674 213.117 331.013 213.195 331.43 213.195H331.898ZM363.664 196.594L363.469 189.562H345.461V190.578H348.586V211.984H345.461V213H363.469L363.664 205.969H362.883L362.336 207.805C361.685 210.018 360.721 211.346 359.445 211.789C359.055 211.919 358.638 211.984 358.195 211.984H351.945V201.477H359.992V200.344H351.945V190.578H358.195C360.07 190.578 361.411 191.841 362.219 194.367C362.271 194.523 362.31 194.654 362.336 194.758L362.883 196.594H363.664ZM378.75 213V211.984H375.664V202.258H379.375L385.625 213H391.523C391.523 212.427 391.367 212.102 391.055 212.023C390.924 211.997 390.768 211.984 390.586 211.984H389.102L382.812 201.906C385.286 201.307 386.979 200.018 387.891 198.039C388.229 197.258 388.398 196.464 388.398 195.656C388.398 193.703 387.552 192.141 385.859 190.969C384.479 190.031 382.773 189.562 380.742 189.562H369.18V190.578H372.305V211.984H369.18V213H378.75ZM379.57 190.578C381.81 190.578 383.359 191.49 384.219 193.312C384.557 194.068 384.727 194.862 384.727 195.695C384.727 197.57 384.076 199.029 382.773 200.07C381.888 200.773 380.859 201.125 379.688 201.125H375.664V190.578H379.57ZM417.469 213C417.469 212.427 417.26 212.102 416.844 212.023C416.714 211.997 416.583 211.984 416.453 211.984H415.125L406.18 189.562H404.734L395.984 211.984H393.523V213H400.477C400.477 212.427 400.268 212.102 399.852 212.023C399.721 211.997 399.591 211.984 399.461 211.984H397.547L400.477 204.406H408.641L411.57 211.984H409.031V213H417.469ZM408.211 203.273H400.906L404.539 193.82L408.211 203.273ZM435.68 202.453V203.469H439.195V209.562C437.893 211.125 436.148 211.997 433.961 212.18C433.753 212.206 433.544 212.219 433.336 212.219C428.154 212.167 425.549 208.521 425.523 201.281C425.523 195.083 427.398 191.49 431.148 190.5C431.799 190.344 432.49 190.266 433.219 190.266C435.901 190.266 437.841 191.008 439.039 192.492C439.82 193.508 440.523 195.096 441.148 197.258H442.164L441.969 189.68L438.57 190.383C436.93 189.576 435.185 189.172 433.336 189.172C430.211 189.172 427.529 190.201 425.289 192.258C422.841 194.523 421.617 197.479 421.617 201.125C421.617 205.292 423.102 208.547 426.07 210.891C428.232 212.557 430.654 213.391 433.336 213.391C435.289 213.391 437.06 212.961 438.648 212.102C438.857 211.997 439.026 211.893 439.156 211.789L442.477 213V203.469H445.406V202.453H435.68ZM468.344 196.594L468.148 189.562H450.141V190.578H453.266V211.984H450.141V213H468.148L468.344 205.969H467.562L467.016 207.805C466.365 210.018 465.401 211.346 464.125 211.789C463.734 211.919 463.318 211.984 462.875 211.984H456.625V201.477H464.672V200.344H456.625V190.578H462.875C464.75 190.578 466.091 191.841 466.898 194.367C466.951 194.523 466.99 194.654 467.016 194.758L467.562 196.594H468.344Z" fill="#081B15"/>
</svg>
