<svg width="393" height="258" viewBox="0 0 393 258" fill="none" xmlns="http://www.w3.org/2000/svg">
<path d="M118.508 208.562H112.258L103.82 227.664L94.7578 208.562H89.1719V209.578H92.2969V230.984H89.1719V232H96.9844C96.9844 231.427 96.776 231.102 96.3594 231.023C96.2292 230.997 96.099 230.984 95.9688 230.984H93.8594V214.188L102.414 232.195H103.234L112.258 212.078V230.984H109.133V232H118.508C118.508 231.427 118.299 231.102 117.883 231.023C117.753 230.997 117.622 230.984 117.492 230.984H115.383V209.578H118.508V208.562ZM147.625 232C147.625 231.427 147.417 231.102 147 231.023C146.87 230.997 146.74 230.984 146.609 230.984H145.281L136.336 208.562H134.891L126.141 230.984H123.68V232H130.633C130.633 231.427 130.424 231.102 130.008 231.023C129.878 230.997 129.747 230.984 129.617 230.984H127.703L130.633 223.406H138.797L141.727 230.984H139.188V232H147.625ZM138.367 222.273H131.062L134.695 212.82L138.367 222.273ZM170.297 232L170.492 224.188H169.711L169.047 226.805C168.422 229.201 167.38 230.568 165.922 230.906C165.609 230.958 165.31 230.984 165.023 230.984H159.672V209.578H162.953V208.562H153.188V209.578H156.312V230.984H153.188V232H170.297ZM186.016 232C186.016 231.427 185.807 231.102 185.391 231.023C185.26 230.997 185.13 230.984 185 230.984H182.93V209.578H186.016V208.562H176.445V209.578H179.57V230.984H176.445V232H186.016ZM224.602 230.203C224.602 231.297 224.758 231.922 225.07 232.078C225.253 232.156 225.5 232.195 225.812 232.195V224.812H224.875C223.547 229.109 220.891 231.271 216.906 231.297C213.521 231.297 211.216 229.591 209.992 226.18C209.393 224.513 209.094 222.547 209.094 220.281C209.094 215.411 210.435 212.104 213.117 210.359C214.289 209.63 215.591 209.266 217.023 209.266C220.279 209.266 222.635 210.802 224.094 213.875C224.354 214.422 224.576 214.982 224.758 215.555H225.695L225.578 208.367C225.005 208.367 224.654 208.549 224.523 208.914C224.445 209.227 224.406 209.734 224.406 210.438C223.651 209.682 222.362 209.07 220.539 208.602C219.341 208.315 218.117 208.172 216.867 208.172C212.753 208.172 209.602 209.695 207.414 212.742C205.904 214.904 205.148 217.391 205.148 220.203C205.148 223.615 206.203 226.479 208.312 228.797C210.552 231.193 213.469 232.391 217.062 232.391C219.693 232.365 222.206 231.635 224.602 230.203ZM255.516 232C255.516 231.427 255.307 231.102 254.891 231.023C254.76 230.997 254.63 230.984 254.5 230.984H253.172L244.227 208.562H242.781L234.031 230.984H231.57V232H238.523C238.523 231.427 238.315 231.102 237.898 231.023C237.768 230.997 237.638 230.984 237.508 230.984H235.594L238.523 223.406H246.688L249.617 230.984H247.078V232H255.516ZM246.258 222.273H238.953L242.586 212.82L246.258 222.273ZM272.25 232V230.984H267.562V220.477H275.609V219.344H267.562V209.578H273.812C275.688 209.578 277.029 210.841 277.836 213.367C277.888 213.523 277.927 213.654 277.953 213.758L278.5 215.594H279.281L279.086 208.562H261.078V209.578H264.203V230.984H261.078V232H272.25ZM303.438 215.594L303.242 208.562H285.234V209.578H288.359V230.984H285.234V232H303.242L303.438 224.969H302.656L302.109 226.805C301.458 229.018 300.495 230.346 299.219 230.789C298.828 230.919 298.411 230.984 297.969 230.984H291.719V220.477H299.766V219.344H291.719V209.578H297.969C299.844 209.578 301.185 210.841 301.992 213.367C302.044 213.523 302.083 213.654 302.109 213.758L302.656 215.594H303.438Z" fill="#081B15"/>
<path d="M292 68V69.0632H288.757V120.937H292V122H277V120.937H280.243V69.0632H277V68H292Z" fill="#081B15"/>
<path d="M242.83 69.008V70.0544H238.752V120.962H250.907C252.531 120.962 254.156 120.688 255.805 120.141C257.446 119.593 258.999 118.692 260.449 117.42C261.899 116.157 263.197 114.515 264.352 112.511C265.507 110.499 266.399 108.06 267.044 105.178H268V122H224V120.954H228.078V70.0463H224V69H242.83V69.008Z" fill="#081B15"/>
<path d="M117.847 68L131.072 105.767H131.223L144.688 68H161V69.0601H156.772V120.932H161V121.992H141.529V120.932H145.685V69.068H145.533L126.725 122H125.504L106.608 69.068H106.456V120.932H110.684V121.992H101V120.932H105.228V69.068H101V68.0079H117.847V68Z" fill="#081B15"/>
<path d="M214.094 120.344L191.525 68.3281H189.587L176.146 101.145H194.525L202.834 120.344H198.796V121.349H217.617V120.344H214.086H214.094ZM177.699 100.139L185.726 80.578L194.179 100.139H177.699Z" fill="#081B15"/>
<path d="M176.324 109.765C176.324 109.765 176.284 109.749 176.26 109.741C175.89 109.62 175.511 109.54 175.117 109.492C173.645 109.25 174.128 107.859 175.302 106.813C175.552 106.588 175.327 106.186 175.005 106.29C173.091 106.95 169.624 109.524 168.273 113.875C168.257 113.915 168.249 113.956 168.232 114.004C168.2 114.108 168.168 114.205 168.136 114.31C168.136 114.318 168.144 114.326 168.144 114.334C168.031 114.816 167.959 115.323 167.959 115.846C167.959 119.385 170.798 122.256 174.313 122.256C177.828 122.256 180.667 119.385 180.667 115.846C180.667 113.015 178.849 110.61 176.324 109.765Z" fill="#081B15"/>
<path d="M175.287 152.111C175.287 150.189 175.923 148.411 177.185 146.762C178.448 145.113 180.041 144.293 181.963 144.293C183.065 144.293 183.958 144.599 184.625 145.218C185.293 145.837 185.631 146.553 185.631 147.365C185.631 148.178 185.381 148.934 184.883 149.618C184.384 150.301 183.95 150.647 183.58 150.647C183.21 150.647 182.936 150.535 182.751 150.309C182.566 150.084 182.478 149.867 182.478 149.658C182.478 149.449 182.566 149.175 182.735 148.853C182.904 148.532 182.992 148.186 182.992 147.848C182.992 147.51 182.872 147.253 182.639 147.076C182.405 146.907 182.124 146.819 181.81 146.819C180.966 146.819 180.161 147.277 179.381 148.202C178.601 149.127 178.215 150.438 178.215 152.151C178.215 153.124 178.488 153.889 179.043 154.444C179.598 154.999 180.322 155.272 181.215 155.272C183.081 155.272 185.092 154.09 187.255 151.717C187.416 151.556 187.585 151.484 187.77 151.484C187.955 151.484 188.132 151.596 188.301 151.821C188.47 152.047 188.558 152.28 188.558 152.529C188.558 152.779 188.502 152.996 188.397 153.181C187.633 154.363 186.588 155.393 185.261 156.261C183.933 157.13 182.381 157.564 180.604 157.564C178.826 157.564 177.386 156.84 176.284 155.393C175.625 154.524 175.295 153.43 175.295 152.119L175.287 152.111Z" fill="#DFB468"/>
<path d="M186.057 153.222C186.057 150.858 186.901 148.742 188.598 146.892C190.295 145.042 192.105 144.109 194.027 144.109C195.105 144.109 195.644 144.383 195.644 144.938V145.171H196.553C197.293 145.171 197.655 145.509 197.655 146.201V146.434L196.553 153.222C196.529 153.327 196.513 153.472 196.513 153.657C196.513 154.292 196.738 154.606 197.18 154.606C198.178 154.606 199.36 153.721 200.735 151.96C200.92 151.726 201.105 151.606 201.29 151.606C201.556 151.606 201.773 151.807 201.958 152.217C202.143 152.627 202.231 152.981 202.231 153.279C202.231 153.576 202.207 153.81 202.151 153.97C201.548 154.815 200.76 155.579 199.786 156.279C198.813 156.979 197.888 157.324 197.003 157.324C196.119 157.324 195.435 157.091 194.952 156.633C194.47 156.174 194.172 155.547 194.068 154.759V154.839C193.617 155.684 193.03 156.335 192.29 156.81C191.526 157.284 190.617 157.517 189.571 157.517C188.526 157.517 187.673 157.115 187.022 156.311C186.378 155.507 186.057 154.477 186.057 153.214V153.222ZM190.513 154.759C191.22 154.759 191.896 154.365 192.547 153.576C193.191 152.788 193.633 151.919 193.867 150.97L194.936 146.555C193.408 146.555 192.041 147.278 190.834 148.726C189.628 150.174 189.017 151.541 189.017 152.828C189.017 154.115 189.515 154.759 190.513 154.759Z" fill="#DFB468"/>
<path d="M207.838 158.666C207.838 159.559 207.838 160.17 207.814 160.5C207.798 160.83 207.758 161.377 207.693 162.141C207.629 162.905 207.371 163.733 206.921 164.626C206.262 165.937 204.934 166.677 202.932 166.838H202.731C200.728 166.838 199.73 164.473 199.73 159.736C199.73 155.819 200.205 151.516 201.154 146.834C201.653 144.261 202.28 141.904 203.028 139.772C203.776 137.641 204.741 135.863 205.932 134.448C207.114 133.024 208.417 132.316 209.841 132.316C210.685 132.316 211.337 132.598 211.811 133.161C212.286 133.724 212.519 134.552 212.519 135.63C212.519 136.708 212.286 137.906 211.811 139.218C210.886 141.848 208.723 145.178 205.304 149.199C205.698 149.328 206.157 149.4 206.688 149.4C207.219 149.4 207.758 149.36 208.304 149.28C208.489 149.255 208.707 149.199 208.956 149.119C209.205 149.038 209.39 148.982 209.511 148.942C209.632 148.902 209.825 148.813 210.106 148.684C210.38 148.556 210.557 148.459 210.637 148.411C210.717 148.363 210.918 148.242 211.248 148.057C211.578 147.872 211.795 147.751 211.9 147.679C212.004 147.615 212.101 147.582 212.173 147.582C212.487 147.582 212.648 147.896 212.648 148.532C212.648 149.167 212.447 149.69 212.053 150.108C211.264 150.977 209.318 151.459 206.213 151.572C206.631 152.465 207.01 153.647 207.339 155.127C207.669 156.599 207.83 157.781 207.83 158.682L207.838 158.666ZM203.382 164.312C204.693 164.312 205.353 162.816 205.353 159.816C205.353 158.135 205.127 156.374 204.685 154.532C204.235 152.69 203.712 151.274 203.109 150.269C203.109 150.398 203.036 151.733 202.891 154.258C202.747 156.784 202.674 158.586 202.674 159.663C202.674 162.768 202.908 164.32 203.382 164.32V164.312ZM209.342 135.308C208.763 135.308 208.192 135.695 207.629 136.475C207.066 137.247 206.567 138.26 206.133 139.515C205.698 140.762 205.32 141.936 205.007 143.03C204.693 144.124 204.412 145.226 204.162 146.344C203.913 147.462 203.776 148.049 203.752 148.097C204.412 147.333 205.127 146.448 205.9 145.435C206.672 144.421 207.556 143.006 208.546 141.196C209.535 139.386 210.026 137.947 210.026 136.893C210.026 135.839 209.8 135.317 209.358 135.317L209.342 135.308Z" fill="#DFB468"/>
<path d="M209.889 152.232C209.889 150.285 210.524 148.475 211.803 146.802C213.082 145.129 214.626 144.293 216.436 144.293C217.514 144.293 218.406 144.599 219.122 145.202C219.83 145.805 220.184 146.626 220.184 147.647C220.184 149.095 219.589 150.261 218.406 151.162C217.224 152.055 215.43 152.754 213.042 153.253C213.412 154.387 214.353 154.95 215.881 154.95C217.988 154.95 219.967 154.057 221.841 152.264C221.945 152.159 222.114 152.103 222.331 152.103C222.549 152.103 222.766 152.199 222.967 152.376C223.168 152.561 223.264 152.787 223.264 153.044C223.264 153.301 223.168 153.567 222.991 153.832C222.331 154.757 221.294 155.602 219.87 156.374C218.447 157.154 216.967 157.54 215.43 157.54C213.894 157.54 212.583 157.09 211.505 156.181C210.428 155.272 209.889 153.953 209.889 152.216V152.232ZM216.5 146.867C215.648 146.867 214.819 147.357 214.031 148.347C213.243 149.336 212.849 150.39 212.849 151.524C216.138 150.39 217.779 149.207 217.779 147.969C217.779 147.229 217.353 146.867 216.5 146.867Z" fill="#DFB468"/>
<path d="M279.104 58.1696H279.095C279.095 58.1696 279.136 58.21 279.152 58.2262C279.484 58.5744 279.849 58.8902 280.254 59.1737C281.721 60.2992 280.352 61.6272 278.423 62.1698C278.009 62.2831 278.018 62.8823 278.431 62.939C280.814 63.2629 285.798 62.3641 289.842 58.6068C290.142 58.3558 290.417 58.0805 290.685 57.789C290.741 57.7242 290.806 57.6837 290.863 57.6189C290.863 57.6108 290.863 57.5946 290.863 57.5865C291.284 57.0926 291.665 56.5501 291.981 55.9427C294.137 51.8454 292.759 46.8816 288.902 44.8572C285.044 42.8328 280.173 44.5171 278.018 48.6145C276.291 51.894 276.834 55.7241 279.095 58.1615L279.104 58.1696Z" fill="#081B15"/>
</svg>
