<svg width="393" height="258" viewBox="0 0 393 258" fill="none" xmlns="http://www.w3.org/2000/svg">
<path d="M251.174 106.826C245 100.722 237.218 96.8307 228.648 95.5776C227.556 95.4159 226.536 96.1839 226.384 97.2653C226.222 98.3568 226.98 99.3775 228.072 99.5392C235.075 100.56 241.543 103.572 246.839 108.251C240.331 113.991 231.973 117.235 223.191 117.397C214.843 117.548 206.778 114.9 200.24 109.928C220.169 107.361 235.732 90.3123 235.844 69.8171C235.844 69.2815 235.631 68.766 235.257 68.3921C234.853 67.9879 234.317 67.7655 233.792 67.806C225.303 67.8565 217.198 70.5144 210.346 75.4866C209.456 76.1334 209.254 77.3866 209.901 78.286C210.214 78.7206 210.679 79.0035 211.205 79.0844C211.73 79.1652 212.266 79.044 212.7 78.7307C218.299 74.668 224.868 72.3133 231.761 71.8888C231.195 80.9641 227.274 89.4331 220.654 95.8606C214.924 101.419 207.688 104.906 199.926 105.946C212.215 90.0596 211.235 67.0783 196.905 52.5862C196.541 52.2122 196.025 52 195.48 52C194.934 52 194.419 52.2122 194.055 52.5862C187.951 58.761 184.06 66.5427 182.807 75.1127C182.645 76.2042 183.403 77.2249 184.504 77.3866C185.596 77.5382 186.617 76.7802 186.768 75.6988C187.789 68.6953 190.801 62.2274 195.48 56.9318C201.442 63.7029 204.626 72.4245 204.464 81.6109C204.323 89.5543 201.665 97.1137 196.915 103.319C194.378 83.5513 177.531 68.0485 157.289 67.8464C156.743 67.8464 156.238 68.0485 155.854 68.4224C155.48 68.7964 155.257 69.3118 155.257 69.8474V73.5665C155.257 73.6271 155.257 73.6978 155.267 73.7686C155.965 80.5801 158.4 87.1491 162.332 92.758C162.958 93.6574 164.211 93.8798 165.121 93.2532C165.555 92.95 165.849 92.4851 165.939 91.9596C166.03 91.4341 165.919 90.8984 165.606 90.4639C162.089 85.4411 159.886 79.5594 159.249 73.4654V71.9293C168.213 72.5255 176.601 76.4568 182.948 83.0561C188.426 88.7559 191.872 95.9313 192.903 103.622C177.137 91.4745 154.287 92.6771 139.926 106.735C139.542 107.109 139.33 107.614 139.33 108.15C139.33 108.685 139.542 109.201 139.916 109.575L142.534 112.192C142.534 112.192 142.635 112.293 142.695 112.334C149.861 118.165 158.906 121.378 168.173 121.378H168.254C175.5 121.378 182.604 119.428 188.8 115.749C189.254 115.477 189.588 115.042 189.719 114.527C189.851 114.011 189.77 113.465 189.497 113.011C189.224 112.546 188.789 112.222 188.274 112.091C187.759 111.96 187.213 112.04 186.758 112.313C181.18 115.618 174.792 117.376 168.264 117.387H168.163C159.856 117.387 151.74 114.506 145.313 109.302L144.232 108.22C151.003 102.288 159.684 99.1147 168.83 99.2663C178.299 99.4179 187.172 103.127 193.842 109.716V109.736C201.503 117.296 211.67 121.449 222.503 121.449C233.347 121.449 243.534 117.286 251.174 109.716C251.548 109.342 251.771 108.827 251.771 108.291C251.771 107.755 251.559 107.24 251.174 106.866V106.826Z" fill="#DFB468"/>
<path d="M90.9515 159.073C90.9515 159.245 90.8706 159.336 90.7191 159.336H83.099C82.9272 159.336 82.8363 159.255 82.8363 159.104V158.639C82.8363 158.447 83.0081 158.356 83.3517 158.356C84.2714 158.356 84.8878 158.224 85.191 157.952C85.4942 157.679 85.6559 157.072 85.6559 156.112L85.1102 144.925L79.2486 158.811C79.1172 159.154 78.996 159.326 78.905 159.326H78.2481C78.2481 159.326 78.1572 159.265 78.0763 159.154C78.0561 159.114 78.0056 159.013 77.9348 158.841L71.952 144.925L71.3759 156.072C71.3759 157.092 71.4972 157.719 71.7499 157.972C72.0025 158.224 72.5179 158.346 73.3062 158.346C73.67 158.346 73.8519 158.447 73.8519 158.659V159.063C73.8519 159.235 73.7509 159.326 73.5589 159.326H67.2628C67.091 159.326 67 159.245 67 159.093V158.608C67 158.437 67.1314 158.346 67.4042 158.346C68.1925 158.346 68.7383 158.275 69.0616 158.133C69.3749 157.992 69.5973 157.658 69.7185 157.143C69.8398 156.628 70.0116 154.839 70.234 151.777C70.4563 148.725 70.5675 146.693 70.5675 145.693C70.5675 144.601 70.4563 143.914 70.234 143.641C70.0116 143.368 69.4659 143.227 68.5766 143.227C68.3441 143.227 68.2329 143.136 68.2329 142.964V142.56C68.2329 142.429 68.3542 142.358 68.6069 142.358H73.2658C73.4982 142.358 73.67 142.53 73.7812 142.873C74.1248 143.904 74.8929 145.844 76.0753 148.674C77.0859 151.069 77.8944 152.919 78.4907 154.222L79.1172 155.627L84.2916 143.439C84.3825 143.186 84.5442 142.893 84.7564 142.55C84.7767 142.509 84.807 142.449 84.8373 142.348H89.9005C90.0318 142.348 90.1026 142.408 90.1026 142.54V143.045C90.1026 143.156 89.8802 143.217 89.4457 143.217C88.6372 143.217 88.1218 143.308 87.8893 143.49C87.6569 143.672 87.5457 144.197 87.5457 145.056L88.1218 155.253C88.1218 156.658 88.2633 157.517 88.5361 157.85C88.809 158.174 89.5063 158.336 90.618 158.336C90.8302 158.336 90.9313 158.416 90.9313 158.568V159.053L90.9515 159.073Z" fill="#081B15"/>
<path d="M122.571 159.075C122.571 159.247 122.46 159.338 122.228 159.338H115.588C115.437 159.206 115.356 159.105 115.356 159.055V158.59C115.356 158.59 115.406 158.509 115.497 158.438C115.517 158.418 115.538 158.408 115.558 158.388H116.285C117.144 158.388 117.569 158.105 117.569 157.549C117.569 157.225 117.478 156.851 117.276 156.447L116.265 153.9H108.807L107.635 156.801C107.523 157.104 107.463 157.326 107.463 157.458C107.463 158.074 107.857 158.377 108.645 158.377H109.302C109.474 158.377 109.565 158.478 109.565 158.66V159.095C109.565 159.176 109.535 159.236 109.474 159.297C109.433 159.317 109.403 159.327 109.393 159.327H103.784C103.653 159.327 103.582 159.236 103.582 159.044V158.6C103.582 158.448 103.673 158.377 103.865 158.377C104.33 158.377 104.673 158.276 104.896 158.084C105.26 157.771 105.684 157.074 106.159 155.992L112.718 142.016H113.84L114.527 143.683C115.143 145.118 115.75 146.553 116.366 147.968C116.771 148.888 117.67 150.889 119.065 153.981C120.025 156.114 120.641 157.377 120.914 157.781C121.187 158.185 121.52 158.388 121.904 158.388C122.329 158.388 122.541 158.489 122.541 158.671V159.075H122.571ZM115.81 152.839L112.617 145.25L109.282 152.839H115.81Z" fill="#081B15"/>
<path d="M148.99 159.133L148.849 159.335H135.539C135.387 159.335 135.307 159.274 135.307 159.163V158.587C135.307 158.476 135.408 158.395 135.62 158.354H136.075C137.085 158.354 137.702 158.193 137.924 157.869C138.157 157.546 138.268 156.667 138.268 155.221V146.247C138.268 144.903 138.146 144.074 137.894 143.751C137.641 143.428 137.004 143.266 135.964 143.266H135.65C135.418 143.266 135.307 143.226 135.307 143.155V142.498L135.478 142.387H143.24C143.321 142.387 143.392 142.417 143.472 142.478C143.493 142.498 143.513 142.518 143.533 142.538V143.084C143.533 143.215 143.392 143.286 143.098 143.286C141.967 143.286 141.289 143.458 141.057 143.802C140.825 144.145 140.713 145.136 140.713 146.763V158.294H141.542C144.089 158.294 145.686 158.243 146.332 158.152C146.969 158.051 147.424 157.799 147.687 157.384C147.949 156.97 148.071 156.161 148.071 154.969C148.071 154.696 148.131 154.565 148.242 154.565H148.788C148.92 154.565 148.99 154.625 148.99 154.736V159.163V159.133Z" fill="#081B15"/>
<path d="M170.558 143.096C170.558 143.208 170.446 143.268 170.214 143.268C169.001 143.268 168.284 143.42 168.041 143.733C167.799 144.036 167.677 144.976 167.677 146.553V155.577C167.677 156.972 167.758 157.801 167.92 158.033C168.082 158.276 168.648 158.397 169.618 158.397H170.224C170.436 158.397 170.548 158.468 170.548 158.599V159.034C170.548 159.246 170.467 159.347 170.315 159.347H162.584C162.473 159.347 162.412 159.266 162.412 159.115V158.599C162.412 158.468 162.503 158.397 162.695 158.397H163.16C164.14 158.397 164.726 158.225 164.929 157.892C165.131 157.558 165.232 156.578 165.232 154.941V145.31C165.232 144.35 165.121 143.774 164.898 143.571C164.676 143.369 164.009 143.268 162.907 143.268C162.574 143.268 162.412 143.187 162.412 143.036V142.551C162.412 142.44 162.493 142.379 162.645 142.379H170.315C170.467 142.379 170.548 142.45 170.548 142.581V143.096H170.558Z" fill="#081B15"/>
<path d="M227.677 151.858C227.677 152.07 227.495 152.171 227.131 152.171C226.383 152.171 225.908 152.293 225.696 152.545C225.484 152.798 225.383 153.394 225.383 154.354L225.494 158.548C224.251 158.953 223.16 159.236 222.23 159.407C221.3 159.579 220.35 159.67 219.37 159.67C216.671 159.67 214.539 158.973 212.983 157.568C211.234 156.002 210.365 153.91 210.365 151.302C210.365 148.503 211.305 146.249 213.185 144.541C215.065 142.833 217.561 141.984 220.684 141.984C222.29 141.984 223.806 142.186 225.221 142.591V147.25C225.221 147.442 225.161 147.533 225.049 147.533H224.504C224.393 147.533 224.332 147.452 224.332 147.3C224.332 145.997 223.907 144.956 223.048 144.177C222.189 143.399 221.047 143.015 219.612 143.015C217.753 143.015 216.237 143.743 215.054 145.188C213.872 146.633 213.286 148.513 213.286 150.807C213.286 153.101 213.902 154.991 215.125 156.466C216.348 157.942 217.935 158.68 219.865 158.68C220.956 158.68 221.957 158.467 222.856 158.043C222.856 157.659 222.866 157.073 222.897 156.285C222.927 155.496 222.937 155.062 222.937 154.961C222.937 153.677 222.826 152.889 222.604 152.586C222.381 152.293 221.805 152.141 220.865 152.141C220.572 152.141 220.401 152.141 220.35 152.111C220.269 152.09 220.239 152.02 220.239 151.909V151.444C220.239 151.292 220.31 151.211 220.441 151.211H227.394C227.566 151.211 227.657 151.292 227.657 151.444V151.818L227.677 151.858Z" fill="#081B15"/>
<path d="M256.522 159.074C256.522 159.245 256.431 159.336 256.239 159.336H252.702C252.57 159.336 252.419 159.144 252.237 158.76C251.964 158.113 251.438 157.113 250.66 155.769C249.872 154.425 248.983 153.02 247.982 151.544L247.578 150.968L245.304 151.059V154.829C245.304 156.769 245.405 157.861 245.617 158.103C245.83 158.275 246.446 158.366 247.457 158.366C247.8 158.366 247.972 158.427 247.972 158.538V159.144C247.972 159.276 247.891 159.346 247.74 159.346H240.665C240.534 159.346 240.463 159.276 240.463 159.144V158.659C240.463 158.467 240.625 158.376 240.948 158.376C241.373 158.376 241.706 158.366 241.969 158.336C242.232 158.305 242.414 158.245 242.515 158.134C242.616 158.033 242.707 157.638 242.757 156.971C242.818 156.304 242.838 155.385 242.838 154.212V147.088C242.838 145.188 242.767 144.086 242.636 143.763C242.505 143.449 242.009 143.288 241.14 143.288C240.817 143.288 240.625 143.288 240.564 143.257C240.483 143.217 240.453 143.136 240.453 142.995V142.51C240.544 142.429 240.625 142.398 240.686 142.398H248.76C250.296 142.398 251.54 142.772 252.5 143.52C253.46 144.268 253.935 145.248 253.935 146.451C253.935 148.442 252.641 149.837 250.054 150.615L250.569 151.443C251.742 153.242 252.722 154.708 253.52 155.84C254.319 156.971 254.864 157.699 255.178 158.022C255.269 158.103 255.521 158.204 255.915 158.326C256.31 158.447 256.502 158.548 256.502 158.629V159.094L256.522 159.074ZM251.176 146.522C251.176 145.248 250.751 144.369 249.912 143.864C249.245 143.46 248.225 143.257 246.871 143.257H245.314V150.099C247.042 150.099 248.316 149.938 249.134 149.604C250.499 149.068 251.176 148.038 251.176 146.512V146.522Z" fill="#081B15"/>
<path d="M286.01 150.737C286.01 153.324 285.222 155.456 283.635 157.134C282.049 158.811 280.028 159.65 277.552 159.65C275.076 159.65 273.277 158.862 271.801 157.295C270.326 155.729 269.588 153.698 269.588 151.201C269.588 148.503 270.376 146.3 271.943 144.592C273.509 142.884 275.581 142.035 278.148 142.035C280.543 142.035 282.453 142.834 283.868 144.42C285.283 146.007 286 148.119 286 150.747L286.01 150.737ZM283.049 150.908C283.049 148.554 282.584 146.644 281.655 145.168C280.725 143.703 279.492 142.965 277.956 142.965C276.268 142.965 274.944 143.662 273.984 145.067C273.024 146.472 272.549 148.382 272.549 150.817C272.549 153.253 273.024 155.072 273.984 156.507C274.944 157.942 276.238 158.66 277.865 158.66C279.492 158.66 280.735 157.962 281.655 156.558C282.574 155.163 283.039 153.273 283.039 150.898L283.049 150.908Z" fill="#081B15"/>
<path d="M326 143.035C326 143.207 325.92 143.298 325.768 143.298C325.273 143.298 324.909 143.389 324.687 143.57C324.464 143.752 324.212 144.217 323.929 144.965L323.181 146.946C322.948 147.542 322.595 148.563 322.1 150.018C321.614 151.473 321.129 152.939 320.644 154.414C320.301 155.465 319.957 156.527 319.603 157.578L319.229 158.76C319.017 159.336 318.866 159.619 318.765 159.619H317.703C317.572 159.579 317.228 158.73 316.693 157.062C316.248 155.779 315.702 154.263 315.056 152.514C314.348 150.614 313.54 148.522 312.64 146.239L310.275 152.454L307.9 159.184C307.86 159.336 307.789 159.478 307.668 159.609H306.607C306.435 159.609 306.263 159.366 306.091 158.891C305.94 158.336 305.849 158.012 305.829 157.911C305.576 157.092 305.081 155.597 304.333 153.454C303.656 151.504 303.161 150.069 302.837 149.169L302.352 147.815C301.625 145.784 301.119 144.541 300.826 144.076C300.483 143.54 300.008 143.267 299.411 143.267C299.3 143.267 299.199 143.237 299.118 143.186C299.098 143.166 299.088 143.146 299.088 143.126V142.55C299.088 142.489 299.118 142.439 299.179 142.378C299.199 142.378 299.229 142.378 299.26 142.348H306.385C306.516 142.348 306.587 142.418 306.587 142.55V143.065C306.587 143.197 306.445 143.267 306.152 143.267C305.404 143.267 304.869 143.338 304.555 143.469C304.242 143.601 304.08 143.914 304.08 144.389C304.08 144.814 304.373 145.976 304.97 147.896C305.222 148.704 305.788 150.443 306.667 153.131L307.648 155.95L308.426 154.081L312.398 142.954C312.479 142.701 312.549 142.519 312.63 142.408C312.63 142.388 312.63 142.368 312.66 142.348H313.782C313.782 142.348 313.893 142.469 313.994 142.722C314.095 142.974 314.186 143.186 314.237 143.358L318.805 155.95C319.624 153.555 320.311 151.534 320.846 149.887C321.897 146.683 322.423 144.793 322.423 144.227C322.423 143.591 321.796 143.277 320.553 143.277C320.28 143.277 320.149 143.217 320.149 143.106V142.53C320.149 142.418 320.24 142.358 320.432 142.358H325.748C325.899 142.358 325.98 142.449 325.98 142.621V143.025L326 143.035Z" fill="#081B15"/>
<path d="M110.508 208.562H104.258L95.8203 227.664L86.7578 208.562H81.1719V209.578H84.2969V230.984H81.1719V232H88.9844C88.9844 231.427 88.776 231.102 88.3594 231.023C88.2292 230.997 88.099 230.984 87.9688 230.984H85.8594V214.188L94.4141 232.195H95.2344L104.258 212.078V230.984H101.133V232H110.508C110.508 231.427 110.299 231.102 109.883 231.023C109.753 230.997 109.622 230.984 109.492 230.984H107.383V209.578H110.508V208.562ZM139.625 232C139.625 231.427 139.417 231.102 139 231.023C138.87 230.997 138.74 230.984 138.609 230.984H137.281L128.336 208.562H126.891L118.141 230.984H115.68V232H122.633C122.633 231.427 122.424 231.102 122.008 231.023C121.878 230.997 121.747 230.984 121.617 230.984H119.703L122.633 223.406H130.797L133.727 230.984H131.188V232H139.625ZM130.367 222.273H123.062L126.695 212.82L130.367 222.273ZM162.297 232L162.492 224.188H161.711L161.047 226.805C160.422 229.201 159.38 230.568 157.922 230.906C157.609 230.958 157.31 230.984 157.023 230.984H151.672V209.578H154.953V208.562H145.188V209.578H148.312V230.984H145.188V232H162.297ZM178.016 232C178.016 231.427 177.807 231.102 177.391 231.023C177.26 230.997 177.13 230.984 177 230.984H174.93V209.578H178.016V208.562H168.445V209.578H171.57V230.984H168.445V232H178.016ZM211.406 221.453V222.469H214.922V228.562C213.62 230.125 211.875 230.997 209.688 231.18C209.479 231.206 209.271 231.219 209.062 231.219C203.88 231.167 201.276 227.521 201.25 220.281C201.25 214.083 203.125 210.49 206.875 209.5C207.526 209.344 208.216 209.266 208.945 209.266C211.628 209.266 213.568 210.008 214.766 211.492C215.547 212.508 216.25 214.096 216.875 216.258H217.891L217.695 208.68L214.297 209.383C212.656 208.576 210.911 208.172 209.062 208.172C205.938 208.172 203.255 209.201 201.016 211.258C198.568 213.523 197.344 216.479 197.344 220.125C197.344 224.292 198.828 227.547 201.797 229.891C203.958 231.557 206.38 232.391 209.062 232.391C211.016 232.391 212.786 231.961 214.375 231.102C214.583 230.997 214.753 230.893 214.883 230.789L218.203 232V222.469H221.133V221.453H211.406ZM244.977 232L245.172 224.188H244.391L243.727 226.805C243.102 229.201 242.06 230.568 240.602 230.906C240.289 230.958 239.99 230.984 239.703 230.984H234.352V209.578H237.633V208.562H227.867V209.578H230.992V230.984H227.867V232H244.977ZM263.43 208.172C260.305 208.172 257.622 209.201 255.383 211.258C252.935 213.523 251.711 216.479 251.711 220.125C251.711 224.344 253.156 227.599 256.047 229.891C258.156 231.557 260.578 232.391 263.312 232.391C266.385 232.391 269.029 231.349 271.242 229.266C273.716 226.948 274.953 223.953 274.953 220.281C274.953 215.984 273.456 212.716 270.461 210.477C268.43 208.94 266.086 208.172 263.43 208.172ZM263.43 231.297C259.654 231.297 257.232 229.279 256.164 225.242C255.799 223.81 255.617 222.156 255.617 220.281C255.617 214.083 257.492 210.49 261.242 209.5C261.893 209.344 262.583 209.266 263.312 209.266C268.443 209.318 271.021 212.938 271.047 220.125C271.047 225.802 269.471 229.331 266.32 230.711C265.435 231.102 264.471 231.297 263.43 231.297ZM303.875 232L311.609 209.578H313.562V208.562H307.234V209.578H310.359L304.227 228.016L297.938 209.578H301.102V208.562H294.383L297.039 216.062L292.938 227.938L286.336 209.578H289.5V208.562H280.906V209.578H283.211L290.398 229.656C290.919 231.141 291.388 231.961 291.805 232.117C291.961 232.169 292.117 232.195 292.273 232.195H292.586L297.664 217.859L301.844 229.656C302.312 230.984 302.69 231.727 302.977 231.883C303.133 231.961 303.328 232 303.562 232H303.875Z" fill="#081B15"/>
</svg>
