<svg width="172" height="25" viewBox="0 0 172 25" fill="none" xmlns="http://www.w3.org/2000/svg">
<path d="M13.3381 4.45455V19H11.321L3.92756 8.33239H3.79261V19H1.59801V4.45455H3.62926L11.0298 15.1364H11.1648V4.45455H13.3381ZM21.0707 19.2202C19.9959 19.2202 19.0702 18.9905 18.2937 18.5312C17.5219 18.0672 16.9253 17.4162 16.5039 16.5781C16.0872 15.7353 15.8789 14.7481 15.8789 13.6165C15.8789 12.4991 16.0872 11.5142 16.5039 10.6619C16.9253 9.80966 17.5124 9.14441 18.2653 8.66619C19.0228 8.18797 19.9083 7.94886 20.9215 7.94886C21.5371 7.94886 22.1336 8.05066 22.7113 8.25426C23.2889 8.45786 23.8074 8.77746 24.2667 9.21307C24.726 9.64867 25.0882 10.2145 25.3533 10.9105C25.6185 11.6018 25.7511 12.4422 25.7511 13.4318V14.1847H17.0792V12.5938H23.6701C23.6701 12.035 23.5565 11.5402 23.3292 11.1094C23.1019 10.6738 22.7823 10.3305 22.3704 10.0795C21.9632 9.8286 21.485 9.70312 20.9357 9.70312C20.3391 9.70312 19.8183 9.84991 19.3732 10.1435C18.9329 10.4323 18.592 10.8111 18.3505 11.2798C18.1138 11.7438 17.9954 12.2481 17.9954 12.7926V14.0355C17.9954 14.7647 18.1232 15.3849 18.3789 15.8963C18.6393 16.4077 19.0015 16.7983 19.4656 17.0682C19.9296 17.3333 20.4717 17.4659 21.092 17.4659C21.4944 17.4659 21.8614 17.4091 22.1928 17.2955C22.5243 17.1771 22.8107 17.0019 23.0522 16.7699C23.2937 16.5379 23.4783 16.2514 23.6062 15.9105L25.6161 16.2727C25.4551 16.8646 25.1663 17.383 24.7496 17.8281C24.3377 18.2685 23.8192 18.6117 23.1942 18.858C22.574 19.0994 21.8661 19.2202 21.0707 19.2202ZM29.5295 8.09091L31.9371 12.3381L34.3661 8.09091H36.6886L33.2866 13.5455L36.717 19H34.3945L31.9371 14.9233L29.4869 19H27.1573L30.5522 13.5455L27.1999 8.09091H29.5295ZM43.9613 8.09091V9.79545H38.0025V8.09091H43.9613ZM39.6005 5.47727H41.7241V15.7969C41.7241 16.2088 41.7856 16.5189 41.9087 16.7273C42.0318 16.9309 42.1905 17.0705 42.3846 17.1463C42.5835 17.2173 42.7989 17.2528 43.0309 17.2528C43.2013 17.2528 43.3505 17.241 43.4783 17.2173C43.6062 17.1937 43.7056 17.1747 43.7766 17.1605L44.1602 18.9148C44.0371 18.9621 43.8619 19.0095 43.6346 19.0568C43.4073 19.1089 43.1232 19.1373 42.7823 19.142C42.2236 19.1515 41.7028 19.0521 41.2198 18.8438C40.7369 18.6354 40.3462 18.3134 40.0479 17.8778C39.7496 17.4422 39.6005 16.8954 39.6005 16.2372V5.47727ZM51.7738 19V4.45455H53.8974V9.85938H54.0252C54.1483 9.6321 54.3259 9.36932 54.5579 9.07102C54.7899 8.77273 55.1119 8.51231 55.5238 8.28977C55.9357 8.0625 56.4802 7.94886 57.1573 7.94886C58.038 7.94886 58.824 8.1714 59.5153 8.61648C60.2066 9.06155 60.7487 9.70312 61.1417 10.5412C61.5394 11.3793 61.7383 12.3878 61.7383 13.5668C61.7383 14.7457 61.5418 15.7566 61.1488 16.5994C60.7558 17.4375 60.216 18.0838 59.5295 18.5384C58.8429 18.9882 58.0593 19.2131 57.1786 19.2131C56.5157 19.2131 55.9736 19.1018 55.5522 18.8793C55.1355 18.6567 54.8088 18.3963 54.5721 18.098C54.3353 17.7997 54.1531 17.5346 54.0252 17.3026H53.8477V19H51.7738ZM53.8548 13.5455C53.8548 14.3125 53.966 14.9848 54.1886 15.5625C54.4111 16.1402 54.7331 16.5923 55.1545 16.919C55.5759 17.241 56.092 17.402 56.7028 17.402C57.3372 17.402 57.8675 17.2339 58.2937 16.8977C58.7198 16.5568 59.0418 16.0952 59.2596 15.5128C59.4821 14.9304 59.5934 14.2746 59.5934 13.5455C59.5934 12.8258 59.4845 12.1795 59.2667 11.6065C59.0536 11.0336 58.7317 10.5814 58.3008 10.25C57.8746 9.91856 57.342 9.75284 56.7028 9.75284C56.0872 9.75284 55.5664 9.91146 55.1403 10.2287C54.7189 10.5459 54.3993 10.9886 54.1815 11.5568C53.9637 12.125 53.8548 12.7879 53.8548 13.5455ZM71.0334 14.4759V8.09091H73.1641V19H71.076V17.1108H70.9624C70.7114 17.6932 70.3089 18.1785 69.755 18.5668C69.2057 18.9503 68.5215 19.142 67.7024 19.142C67.0017 19.142 66.3814 18.9882 65.8416 18.6804C65.3066 18.3679 64.8852 17.9062 64.5774 17.2955C64.2744 16.6847 64.1229 15.9295 64.1229 15.0298V8.09091H66.2464V14.7741C66.2464 15.5175 66.4524 16.1094 66.8643 16.5497C67.2763 16.9901 67.8113 17.2102 68.4695 17.2102C68.8672 17.2102 69.2625 17.1108 69.6555 16.9119C70.0533 16.7131 70.3823 16.4124 70.6428 16.0099C70.9079 15.6075 71.0381 15.0961 71.0334 14.4759ZM84.1921 10.7543L82.2674 11.0952C82.1869 10.849 82.0591 10.6146 81.8839 10.392C81.7134 10.1695 81.4814 9.98722 81.1879 9.84517C80.8943 9.70312 80.5273 9.6321 80.087 9.6321C79.4857 9.6321 78.9838 9.76705 78.5813 10.0369C78.1789 10.3021 77.9776 10.6454 77.9776 11.0668C77.9776 11.4313 78.1126 11.7249 78.3825 11.9474C78.6523 12.17 79.0879 12.3523 79.6893 12.4943L81.4222 12.892C82.426 13.1241 83.1741 13.4815 83.6665 13.9645C84.159 14.4474 84.4052 15.0748 84.4052 15.8466C84.4052 16.5 84.2158 17.0824 83.837 17.5938C83.463 18.1004 82.9397 18.4981 82.2674 18.7869C81.5998 19.0758 80.8256 19.2202 79.945 19.2202C78.7234 19.2202 77.7267 18.9598 76.9549 18.4389C76.1831 17.9134 75.7096 17.1676 75.5344 16.2017L77.587 15.8892C77.7148 16.4242 77.9776 16.8291 78.3754 17.1037C78.7731 17.3736 79.2915 17.5085 79.9308 17.5085C80.6268 17.5085 81.1831 17.3641 81.5998 17.0753C82.0165 16.7817 82.2248 16.4242 82.2248 16.0028C82.2248 15.6619 82.0969 15.3755 81.8413 15.1435C81.5903 14.9115 81.2044 14.7363 80.6836 14.6179L78.837 14.2131C77.819 13.9811 77.0662 13.6117 76.5785 13.1051C76.0955 12.5985 75.854 11.9569 75.854 11.1804C75.854 10.5365 76.034 9.97301 76.3938 9.49006C76.7537 9.0071 77.2508 8.63068 77.8853 8.3608C78.5198 8.08617 79.2466 7.94886 80.0657 7.94886C81.2447 7.94886 82.1727 8.20455 82.8498 8.71591C83.5269 9.22254 83.9743 9.90199 84.1921 10.7543ZM86.7401 19V8.09091H88.8636V19H86.7401ZM87.8125 6.40767C87.4432 6.40767 87.1259 6.28456 86.8608 6.03835C86.6004 5.7874 86.4702 5.48911 86.4702 5.14347C86.4702 4.79309 86.6004 4.49479 86.8608 4.24858C87.1259 3.99763 87.4432 3.87216 87.8125 3.87216C88.1818 3.87216 88.4967 3.99763 88.7571 4.24858C89.0223 4.49479 89.1548 4.79309 89.1548 5.14347C89.1548 5.48911 89.0223 5.7874 88.7571 6.03835C88.4967 6.28456 88.1818 6.40767 87.8125 6.40767ZM93.8441 12.5227V19H91.7205V8.09091H93.7589V9.86648H93.8938C94.1448 9.28883 94.5378 8.82481 95.0728 8.47443C95.6126 8.12405 96.292 7.94886 97.1112 7.94886C97.8545 7.94886 98.5056 8.10511 99.0643 8.41761C99.623 8.72538 100.056 9.18466 100.364 9.79545C100.672 10.4062 100.826 11.1615 100.826 12.0611V19H98.7021V12.3168C98.7021 11.526 98.4961 10.9081 98.0842 10.4631C97.6722 10.0133 97.1064 9.78835 96.3867 9.78835C95.8943 9.78835 95.4563 9.89489 95.0728 10.108C94.694 10.321 94.3933 10.6335 94.1708 11.0455C93.953 11.4527 93.8441 11.9451 93.8441 12.5227ZM108.375 19.2202C107.301 19.2202 106.375 18.9905 105.598 18.5312C104.827 18.0672 104.23 17.4162 103.809 16.5781C103.392 15.7353 103.184 14.7481 103.184 13.6165C103.184 12.4991 103.392 11.5142 103.809 10.6619C104.23 9.80966 104.817 9.14441 105.57 8.66619C106.328 8.18797 107.213 7.94886 108.226 7.94886C108.842 7.94886 109.438 8.05066 110.016 8.25426C110.594 8.45786 111.112 8.77746 111.571 9.21307C112.031 9.64867 112.393 10.2145 112.658 10.9105C112.923 11.6018 113.056 12.4422 113.056 13.4318V14.1847H104.384V12.5938H110.975C110.975 12.035 110.861 11.5402 110.634 11.1094C110.407 10.6738 110.087 10.3305 109.675 10.0795C109.268 9.8286 108.79 9.70312 108.24 9.70312C107.644 9.70312 107.123 9.84991 106.678 10.1435C106.238 10.4323 105.897 10.8111 105.655 11.2798C105.418 11.7438 105.3 12.2481 105.3 12.7926V14.0355C105.3 14.7647 105.428 15.3849 105.684 15.8963C105.944 16.4077 106.306 16.7983 106.77 17.0682C107.234 17.3333 107.776 17.4659 108.397 17.4659C108.799 17.4659 109.166 17.4091 109.498 17.2955C109.829 17.1771 110.115 17.0019 110.357 16.7699C110.598 16.5379 110.783 16.2514 110.911 15.9105L112.921 16.2727C112.76 16.8646 112.471 17.383 112.054 17.8281C111.642 18.2685 111.124 18.6117 110.499 18.858C109.879 19.0994 109.171 19.2202 108.375 19.2202ZM123.587 10.7543L121.662 11.0952C121.581 10.849 121.454 10.6146 121.278 10.392C121.108 10.1695 120.876 9.98722 120.582 9.84517C120.289 9.70312 119.922 9.6321 119.482 9.6321C118.88 9.6321 118.378 9.76705 117.976 10.0369C117.573 10.3021 117.372 10.6454 117.372 11.0668C117.372 11.4313 117.507 11.7249 117.777 11.9474C118.047 12.17 118.482 12.3523 119.084 12.4943L120.817 12.892C121.821 13.1241 122.569 13.4815 123.061 13.9645C123.554 14.4474 123.8 15.0748 123.8 15.8466C123.8 16.5 123.61 17.0824 123.232 17.5938C122.857 18.1004 122.334 18.4981 121.662 18.7869C120.994 19.0758 120.22 19.2202 119.339 19.2202C118.118 19.2202 117.121 18.9598 116.349 18.4389C115.578 17.9134 115.104 17.1676 114.929 16.2017L116.982 15.8892C117.109 16.4242 117.372 16.8291 117.77 17.1037C118.168 17.3736 118.686 17.5085 119.325 17.5085C120.021 17.5085 120.578 17.3641 120.994 17.0753C121.411 16.7817 121.619 16.4242 121.619 16.0028C121.619 15.6619 121.491 15.3755 121.236 15.1435C120.985 14.9115 120.599 14.7363 120.078 14.6179L118.232 14.2131C117.214 13.9811 116.461 13.6117 115.973 13.1051C115.49 12.5985 115.249 11.9569 115.249 11.1804C115.249 10.5365 115.429 9.97301 115.788 9.49006C116.148 9.0071 116.645 8.63068 117.28 8.3608C117.914 8.08617 118.641 7.94886 119.46 7.94886C120.639 7.94886 121.567 8.20455 122.244 8.71591C122.921 9.22254 123.369 9.90199 123.587 10.7543ZM134.309 10.7543L132.385 11.0952C132.304 10.849 132.176 10.6146 132.001 10.392C131.831 10.1695 131.599 9.98722 131.305 9.84517C131.011 9.70312 130.645 9.6321 130.204 9.6321C129.603 9.6321 129.101 9.76705 128.699 10.0369C128.296 10.3021 128.095 10.6454 128.095 11.0668C128.095 11.4313 128.23 11.7249 128.5 11.9474C128.77 12.17 129.205 12.3523 129.806 12.4943L131.539 12.892C132.543 13.1241 133.291 13.4815 133.784 13.9645C134.276 14.4474 134.522 15.0748 134.522 15.8466C134.522 16.5 134.333 17.0824 133.954 17.5938C133.58 18.1004 133.057 18.4981 132.385 18.7869C131.717 19.0758 130.943 19.2202 130.062 19.2202C128.841 19.2202 127.844 18.9598 127.072 18.4389C126.3 17.9134 125.827 17.1676 125.652 16.2017L127.704 15.8892C127.832 16.4242 128.095 16.8291 128.493 17.1037C128.89 17.3736 129.409 17.5085 130.048 17.5085C130.744 17.5085 131.3 17.3641 131.717 17.0753C132.134 16.7817 132.342 16.4242 132.342 16.0028C132.342 15.6619 132.214 15.3755 131.958 15.1435C131.708 14.9115 131.322 14.7363 130.801 14.6179L128.954 14.2131C127.936 13.9811 127.183 13.6117 126.696 13.1051C126.213 12.5985 125.971 11.9569 125.971 11.1804C125.971 10.5365 126.151 9.97301 126.511 9.49006C126.871 9.0071 127.368 8.63068 128.002 8.3608C128.637 8.08617 129.364 7.94886 130.183 7.94886C131.362 7.94886 132.29 8.20455 132.967 8.71591C133.644 9.22254 134.092 9.90199 134.309 10.7543Z" fill="#C8C7D8"/>
<path d="M140 14.7454H169.814M169.814 14.7454L161.068 6M169.814 14.7454L161.068 23.8882" stroke="#C8C7D8" stroke-width="2"/>
</svg>
